<svg width="299" height="255" viewBox="0 0 299 255" fill="none" xmlns="http://www.w3.org/2000/svg">
<path d="M225.51 173.806L225.628 174.799L225.51 173.806ZM296.286 166.122C296.628 165.689 296.553 165.06 296.119 164.718L289.05 159.148C288.616 158.806 287.987 158.881 287.645 159.315C287.304 159.748 287.378 160.377 287.812 160.719L294.096 165.67L289.145 171.954C288.803 172.388 288.878 173.017 289.311 173.358C289.745 173.7 290.374 173.626 290.716 173.192L296.286 166.122ZM9.1818 78.0751C11.5758 81.4844 14.0521 84.8157 16.6068 88.0676L18.1795 86.832C15.6469 83.6083 13.192 80.3056 10.8185 76.9258L9.1818 78.0751ZM33.0066 106.776C38.83 112.739 44.9468 118.355 51.3241 123.612L52.5962 122.069C46.2741 116.858 40.2103 111.29 34.4374 105.379L33.0066 106.776ZM71.3482 138.38C78.292 142.945 85.4682 147.127 92.8429 150.911L93.7558 149.131C86.4448 145.38 79.3306 141.235 72.4469 136.709L71.3482 138.38ZM115.558 161.061C123.296 164.031 131.199 166.588 139.232 168.715L139.744 166.782C131.78 164.673 123.946 162.139 116.275 159.194L115.558 161.061ZM163.592 173.781C171.762 175.026 180.027 175.836 188.353 176.197L188.44 174.198C180.185 173.841 171.992 173.038 163.893 171.804L163.592 173.781ZM213.231 175.934C217.358 175.668 221.491 175.29 225.628 174.799L225.393 172.813C221.291 173.3 217.193 173.674 213.102 173.938L213.231 175.934ZM225.628 174.799L243.126 172.724L242.89 170.737L225.393 172.813L225.628 174.799ZM278.121 168.572L295.618 166.497L295.382 164.51L277.885 166.586L278.121 168.572ZM225.51 173.806L225.746 175.792L225.51 173.806ZM297.071 166.741C297.755 165.874 297.606 164.616 296.738 163.933L282.599 152.793C281.732 152.109 280.474 152.258 279.791 153.126C279.107 153.993 279.256 155.251 280.124 155.935L292.692 165.837L282.789 178.404C282.106 179.272 282.255 180.53 283.123 181.213C283.99 181.897 285.248 181.748 285.931 180.88L297.071 166.741ZM8.36342 78.6498C10.7678 82.0737 13.2547 85.4195 15.8204 88.6853L18.9659 86.2143C16.4443 83.0046 14.0001 79.7163 11.6369 76.3511L8.36342 78.6498ZM32.2912 107.475C38.1398 113.463 44.2831 119.104 50.6881 124.384L53.2322 121.297C46.9378 116.109 40.9005 110.565 35.1528 104.68L32.2912 107.475ZM70.7988 139.216C77.7726 143.801 84.9799 148.001 92.3864 151.8L94.2123 148.241C86.9331 144.507 79.85 140.379 72.9962 135.873L70.7988 139.216ZM115.2 161.995C122.971 164.978 130.908 167.545 138.976 169.682L140 165.815C132.071 163.715 124.271 161.192 116.633 158.261L115.2 161.995ZM163.441 174.77C171.647 176.02 179.947 176.833 188.31 177.196L188.483 173.199C180.265 172.843 172.107 172.044 164.043 170.815L163.441 174.77ZM213.295 176.932C217.44 176.664 221.591 176.285 225.746 175.792L225.275 171.82C221.191 172.305 217.111 172.677 213.038 172.94L213.295 176.932ZM225.746 175.792L243.243 173.717L242.772 169.744L225.275 171.82L225.746 175.792ZM278.238 169.565L295.736 167.49L295.265 163.517L277.767 165.593L278.238 169.565Z" fill="#57ADFF"/>
</svg>
