<svg width="705" height="87" viewBox="0 0 705 87" fill="none" xmlns="http://www.w3.org/2000/svg">
<path d="M286.991 31.3607L286.58 32.2722L286.991 31.3607ZM324.292 48.1927L324.703 47.2812L324.292 48.1927ZM618.202 65.692L618.502 66.6459L618.202 65.692ZM703.887 39.4622C704.142 38.9724 703.952 38.3685 703.462 38.1132L695.481 33.9537C694.991 33.6984 694.387 33.8885 694.132 34.3783C693.877 34.868 694.067 35.472 694.557 35.7272L701.651 39.4246L697.954 46.5189C697.698 47.0087 697.888 47.6126 698.378 47.8679C698.868 48.1231 699.472 47.933 699.727 47.4433L703.887 39.4622ZM1.45939 39.8882C5.1089 38.0007 8.78562 36.186 12.4875 34.4442L11.6359 32.6345C7.9115 34.387 4.21236 36.2128 0.540614 38.1118L1.45939 39.8882ZM35.1091 24.8192C42.7903 21.8865 50.5574 19.2527 58.3932 16.9182L57.8222 15.0015C49.9385 17.3503 42.1239 20.0002 34.3957 22.9508L35.1091 24.8192ZM82.2026 10.7886C90.2236 9.04202 98.2969 7.60011 106.405 6.46332L106.127 4.48269C97.9697 5.62642 89.8471 7.07714 81.7771 8.83438L82.2026 10.7886ZM130.864 3.96562C139.046 3.43941 147.244 3.22042 155.442 3.30912L155.464 1.30924C147.216 1.21999 138.967 1.44032 130.736 1.96975L130.864 3.96562ZM180 4.49748C188.157 5.1998 196.296 6.20868 204.399 7.52456L204.719 5.55042C196.567 4.2265 188.378 3.21146 180.172 2.50485L180 4.49748ZM228.501 12.3744C236.451 14.2872 244.347 16.5026 252.174 19.0211L252.787 17.1172C244.912 14.5834 236.967 12.3544 228.969 10.4299L228.501 12.3744ZM275.277 27.4246C279.067 28.9664 282.835 30.5823 286.58 32.2722L287.403 30.4492C283.635 28.749 279.844 27.1233 276.031 25.5721L275.277 27.4246ZM286.58 32.2722L295.905 36.4802L296.728 34.6572L287.403 30.4492L286.58 32.2722ZM314.556 44.8962L323.881 49.1042L324.703 47.2812L315.378 43.0732L314.556 44.8962ZM323.881 49.1042C327.707 50.8308 331.554 52.4968 335.421 54.1021L336.188 52.255C332.34 50.6575 328.511 48.9995 324.703 47.2812L323.881 49.1042ZM358.923 63.034C366.862 65.778 374.867 68.2747 382.928 70.5233L383.465 68.5969C375.443 66.3591 367.477 63.8745 359.577 61.1437L358.923 63.034ZM407.341 76.5409C415.545 78.3006 423.793 79.8089 432.074 81.0652L432.374 79.0878C424.133 77.8376 415.924 76.3366 407.76 74.5854L407.341 76.5409ZM457.037 84.0801C465.387 84.8321 473.757 85.3305 482.137 85.5745L482.195 83.5754C473.856 83.3325 465.526 82.8366 457.216 82.0882L457.037 84.0801ZM507.281 85.543C515.653 85.2783 524.022 84.7593 532.376 83.9855L532.192 81.994C523.878 82.7641 515.549 83.2805 507.218 83.544L507.281 85.543ZM557.331 80.9073C565.602 79.631 573.847 78.1019 582.055 76.3192L581.63 74.3648C573.462 76.1388 565.257 77.6606 557.026 78.9307L557.331 80.9073ZM606.451 70.2393C610.481 69.1041 614.498 67.9063 618.502 66.6459L617.902 64.7382C613.917 65.9925 609.919 67.1845 605.909 68.3142L606.451 70.2393ZM618.502 66.6459L629.102 63.3094L628.502 61.4017L617.902 64.7382L618.502 66.6459ZM650.302 56.6364L671.501 49.9634L670.901 48.0557L649.701 54.7287L650.302 56.6364ZM692.701 43.2904L703.3 39.9539L702.7 38.0461L692.1 41.3826L692.701 43.2904ZM286.991 31.3607L286.169 33.1837L286.991 31.3607ZM324.292 48.1927L325.115 46.3697L324.292 48.1927ZM618.202 65.692L618.803 67.5998L618.202 65.692ZM704.774 39.9243C705.284 38.9448 704.904 37.7369 703.924 37.2264L687.962 28.9073C686.983 28.3968 685.775 28.777 685.264 29.7565C684.754 30.7361 685.134 31.944 686.113 32.4545L700.302 39.8492L692.907 54.0379C692.397 55.0174 692.777 56.2253 693.757 56.7358C694.736 57.2463 695.944 56.8661 696.454 55.8866L704.774 39.9243ZM1.91877 40.7765C5.55717 38.8947 9.22268 37.0856 12.9132 35.349L11.2102 31.7297C7.47444 33.4875 3.7641 35.3188 0.0812284 37.2235L1.91877 40.7765ZM35.4658 25.7534C43.1235 22.8297 50.8669 20.204 58.6788 17.8766L57.5367 14.0431C49.629 16.399 41.7907 19.057 34.0391 22.0165L35.4658 25.7534ZM82.4154 11.7657C90.4119 10.0245 98.4605 8.58695 106.544 7.45363L105.988 3.49237C97.8061 4.63958 89.6588 6.0947 81.5644 7.85728L82.4154 11.7657ZM130.929 4.96356C139.085 4.43895 147.258 4.22063 155.431 4.30906L155.474 0.309296C147.202 0.21978 138.928 0.440777 130.672 0.971806L130.929 4.96356ZM179.914 5.49379C188.046 6.19397 196.16 7.19976 204.238 8.51163L204.879 4.56335C196.702 3.23541 188.489 2.2173 180.257 1.50854L179.914 5.49379ZM228.267 13.3466C236.192 15.2536 244.065 17.4623 251.868 19.973L253.093 16.1653C245.194 13.6238 237.225 11.388 229.203 9.45766L228.267 13.3466ZM274.9 28.3509C278.678 29.888 282.435 31.4989 286.169 33.1837L287.814 29.5377C284.035 27.8323 280.232 26.2017 276.408 24.6458L274.9 28.3509ZM286.169 33.1837L295.494 37.3917L297.139 33.7457L287.814 29.5377L286.169 33.1837ZM314.144 45.8077L323.47 50.0157L325.115 46.3697L315.79 42.1617L314.144 45.8077ZM323.47 50.0157C327.305 51.7465 331.161 53.4165 335.037 55.0257L336.571 51.3315C332.733 49.7378 328.913 48.0838 325.115 46.3697L323.47 50.0157ZM358.597 63.9791C366.554 66.7298 374.579 69.2325 382.659 71.4866L383.734 67.6337C375.731 65.4013 367.784 62.9227 359.903 60.1986L358.597 63.9791ZM407.131 77.5186C415.355 79.2826 423.623 80.7946 431.924 82.0539L432.524 78.0991C424.303 76.852 416.114 75.3546 407.97 73.6076L407.131 77.5186ZM456.947 85.0761C465.317 85.8299 473.708 86.3295 482.108 86.5741L482.224 82.5758C473.905 82.3336 465.595 81.8388 457.306 81.0922L456.947 85.0761ZM507.313 86.5425C515.704 86.2771 524.094 85.7569 532.469 84.9812L532.1 80.9983C523.806 81.7665 515.497 82.2817 507.186 82.5445L507.313 86.5425ZM557.484 81.8956C565.774 80.6163 574.039 79.0834 582.267 77.2964L581.418 73.3876C573.27 75.1573 565.084 76.6754 556.874 77.9424L557.484 81.8956ZM606.722 71.2018C610.761 70.0639 614.789 68.8632 618.803 67.5998L617.602 63.7843C613.626 65.0356 609.638 66.2247 605.638 67.3517L606.722 71.2018ZM618.803 67.5998L629.402 64.2633L628.201 60.4478L617.602 63.7843L618.803 67.5998ZM650.602 57.5902L671.801 50.9172L670.6 47.1018L649.401 53.7748L650.602 57.5902ZM693.001 44.2442L703.601 40.9077L702.399 37.0923L691.8 40.4288L693.001 44.2442Z" fill="#57ADFF"/>
</svg>
