<svg width="65" height="88" viewBox="0 0 65 88" fill="none" xmlns="http://www.w3.org/2000/svg">
<path d="M16.5793 73.0497L16.3092 72.0869L16.5793 73.0497ZM2.0102 77.8718C1.5287 77.6013 1.35766 76.9917 1.62816 76.5102L6.03633 68.6637C6.30683 68.1822 6.91646 68.0111 7.39796 68.2816C7.87946 68.5521 8.05051 69.1618 7.78 69.6433L3.86163 76.618L10.8363 80.5363C11.3178 80.8068 11.4889 81.4165 11.2184 81.898C10.9479 82.3795 10.3382 82.5505 9.85674 82.28L2.0102 77.8718ZM61.9816 0.808898C62.7474 4.74262 63.1316 8.66852 63.1583 12.5465L61.1583 12.5603C61.1325 8.80526 60.7605 5.00272 60.0184 1.1911L61.9816 0.808898ZM58.9467 35.655C56.1148 43.0222 51.9298 49.8103 46.6196 55.6495L45.1399 54.3039C50.2832 48.6482 54.337 42.073 57.0799 34.9374L58.9467 35.655ZM27.8649 69.7917C24.3882 71.5097 20.708 72.9299 16.8494 74.0125L16.3092 72.0869C20.048 71.0378 23.6124 69.6622 26.9789 67.9987L27.8649 69.7917ZM16.8494 74.0125L13.3296 75.0001L12.7893 73.0744L16.3092 72.0869L16.8494 74.0125ZM6.28997 76.9752L2.77014 77.9628L2.22986 76.0372L5.74968 75.0496L6.28997 76.9752ZM16.5793 73.0497L16.039 71.1241L16.039 71.1241L16.5793 73.0497ZM1.52041 78.7437C0.557402 78.2027 0.215311 76.9834 0.756325 76.0204L9.57265 60.3273C10.1137 59.3643 11.3329 59.0222 12.2959 59.5633C13.2589 60.1043 13.601 61.3235 13.06 62.2865L5.22327 76.2359L19.1727 84.0727C20.1357 84.6137 20.4778 85.8329 19.9367 86.7959C19.3957 87.7589 18.1765 88.101 17.2135 87.56L1.52041 78.7437ZM62.9631 0.617796C63.7409 4.61258 64.1311 8.60015 64.1582 12.5396L60.1583 12.5672C60.1329 8.87363 59.7671 5.13277 59.0369 1.38221L62.9631 0.617796ZM59.8801 36.0138C57.0037 43.4967 52.753 50.3913 47.3594 56.3223L44.4001 53.6311C49.46 48.0671 53.4481 41.5985 56.1465 34.5786L59.8801 36.0138ZM28.3079 70.6883C24.776 72.4335 21.0381 73.8759 17.1196 74.9753L16.039 71.1241C19.7179 70.0918 23.2245 68.7384 26.5359 67.1022L28.3079 70.6883ZM17.1196 74.9753L13.5998 75.9629L12.5192 72.1116L16.039 71.1241L17.1196 74.9753ZM6.56011 77.9381L3.04029 78.9256L1.95971 75.0744L5.47954 74.0868L6.56011 77.9381Z" fill="#57ADFF"/>
</svg>
