<svg width="74" height="176" viewBox="0 0 74 176" fill="none" xmlns="http://www.w3.org/2000/svg">
<path d="M31.1414 150.129L30.5713 149.307L31.1414 150.129ZM2.3221 170.984C1.77863 170.886 1.4177 170.366 1.51595 169.822L3.117 160.966C3.21525 160.422 3.73547 160.061 4.27894 160.16C4.82242 160.258 5.18335 160.778 5.0851 161.321L3.66194 169.194L11.5343 170.617C12.0778 170.715 12.4387 171.235 12.3405 171.779C12.2422 172.322 11.722 172.683 11.1785 172.585L2.3221 170.984ZM38.1385 1.73044C40.9518 4.06487 43.5886 6.51991 46.0495 9.08056L44.6075 10.4664C42.1987 7.95995 39.6169 5.55608 36.8614 3.26956L38.1385 1.73044ZM59.0955 26.2431C62.8052 32.5238 65.7121 39.1435 67.8228 45.9544L65.9124 46.5464C63.847 39.8816 61.0028 33.4048 57.3735 27.2602L59.0955 26.2431ZM71.7963 67.1407C72.3064 74.3284 71.9949 81.5591 70.8687 88.6763L68.8933 88.3637C69.9957 81.3967 70.3006 74.3183 69.8013 67.2823L71.7963 67.1407ZM65.0882 109.443C62.3998 116.047 58.9344 122.392 54.6984 128.33L53.0702 127.169C57.2144 121.359 60.6051 115.151 63.2359 108.688L65.0882 109.443ZM40.2251 144.308C37.5531 146.647 34.715 148.866 31.7114 150.95L30.5713 149.307C33.5133 147.266 36.2922 145.093 38.9075 142.803L40.2251 144.308ZM31.7114 150.95L24.5511 155.918L23.411 154.275L30.5713 149.307L31.7114 150.95ZM10.2304 165.854L3.07004 170.822L1.92996 169.178L9.0903 164.211L10.2304 165.854ZM31.1414 150.129L30.0013 148.485L31.1414 150.129ZM2.14421 171.968C1.05726 171.772 0.335402 170.731 0.531899 169.644L3.734 151.931C3.9305 150.844 4.97094 150.123 6.05789 150.319C7.14484 150.516 7.86669 151.556 7.6702 152.643L4.82389 168.388L20.5687 171.234C21.6556 171.43 22.3775 172.471 22.181 173.558C21.9845 174.645 20.9441 175.367 19.8571 175.17L2.14421 171.968ZM38.7771 0.960877C41.6193 3.31926 44.2836 5.79989 46.7705 8.38764L43.8865 11.1593C41.5037 8.67997 38.9495 6.30169 36.2228 4.03912L38.7771 0.960877ZM59.9565 25.7345C63.7064 32.0833 66.6447 38.7745 68.778 45.6584L64.9572 46.8424C62.9145 40.2507 60.1015 33.8453 56.5124 27.7688L59.9565 25.7345ZM72.7938 67.07C73.3092 74.3334 72.9945 81.6403 71.8564 88.8326L67.9056 88.2074C68.9962 81.3154 69.2978 74.3133 68.8038 67.3531L72.7938 67.07ZM66.0144 109.82C63.2972 116.494 59.7945 122.908 55.5125 128.911L52.2561 126.588C56.3544 120.843 59.7077 114.703 62.3097 108.311L66.0144 109.82ZM40.8838 145.06C38.1836 147.424 35.3158 149.667 32.2814 151.772L30.0013 148.485C32.9124 146.466 35.6617 144.316 38.2488 142.051L40.8838 145.06ZM32.2814 151.772L25.1211 156.74L22.8409 153.453L30.0013 148.485L32.2814 151.772ZM10.8004 166.675L3.64007 171.643L1.35992 168.357L8.52026 163.389L10.8004 166.675Z" fill="#57ADFF"/>
</svg>
