<svg width="215" height="324" viewBox="0 0 215 324" fill="none" xmlns="http://www.w3.org/2000/svg">
<path d="M48.3386 288.635L48.9301 289.442L48.3386 288.635ZM28.3815 302.397C28.2976 302.943 28.6721 303.454 29.2179 303.538L38.1135 304.905C38.6593 304.989 39.1699 304.615 39.2538 304.069C39.3377 303.523 38.9632 303.012 38.4173 302.928L30.5102 301.713L31.7256 293.806C31.8095 293.26 31.4351 292.749 30.8892 292.666C30.3433 292.582 29.8328 292.956 29.7489 293.502L28.3815 302.397ZM150.651 2.24371C151.746 6.60071 152.729 10.967 153.602 15.339L155.564 14.9473C154.684 10.5433 153.694 6.14502 152.591 1.75621L150.651 2.24371ZM157.553 41.8693C158.437 50.8177 158.872 59.7601 158.867 68.6662L160.867 68.6671C160.872 59.6954 160.434 50.6871 159.543 41.6727L157.553 41.8693ZM157.529 95.4578C156.64 104.38 155.311 113.234 153.555 121.987L155.516 122.381C157.285 113.563 158.623 104.644 159.519 95.6561L157.529 95.4578ZM146.987 147.998C144.372 156.555 141.337 164.978 137.893 173.236L139.739 174.006C143.208 165.687 146.265 157.202 148.9 148.583L146.987 147.998ZM126.361 197.458C122.13 205.32 117.506 212.986 112.5 220.425L114.159 221.542C119.202 214.048 123.86 206.326 128.122 198.406L126.361 197.458ZM96.4421 241.913C90.7647 248.775 84.7263 255.385 78.3378 261.713L79.7453 263.134C86.1808 256.759 92.2637 250.101 97.983 243.188L96.4421 241.913ZM58.373 279.626C54.912 282.436 51.3696 285.172 47.7471 287.829L48.9301 289.442C52.579 286.765 56.1473 284.01 59.6337 281.179L58.373 279.626ZM47.7471 287.829L43.0049 291.307L44.1879 292.92L48.9301 289.442L47.7471 287.829ZM33.5206 298.265L28.7784 301.743L29.9613 303.356L34.7035 299.877L33.5206 298.265ZM48.3386 288.635L49.5215 290.248L48.3386 288.635ZM27.3931 302.246C27.2253 303.337 27.9743 304.358 29.066 304.526L46.8571 307.261C47.9488 307.429 48.9699 306.68 49.1377 305.588C49.3055 304.496 48.5565 303.475 47.4648 303.307L31.6505 300.877L34.0814 285.062C34.2492 283.971 33.5002 282.949 32.4085 282.782C31.3167 282.614 30.2957 283.363 30.1278 284.455L27.3931 302.246ZM149.681 2.48746C150.772 6.82856 151.752 11.1789 152.622 15.5348L156.544 14.7515C155.662 10.3314 154.667 5.91718 153.56 1.51245L149.681 2.48746ZM156.558 41.9676C157.439 50.8831 157.872 59.7925 157.867 68.6657L161.867 68.6675C161.872 59.663 161.432 50.6217 160.539 41.5744L156.558 41.9676ZM156.534 95.3586C155.648 104.248 154.324 113.069 152.574 121.79L156.496 122.577C158.272 113.728 159.615 104.776 160.514 95.7553L156.534 95.3586ZM146.031 147.706C143.425 156.231 140.401 164.624 136.97 172.851L140.662 174.391C144.144 166.042 147.212 157.526 149.856 148.875L146.031 147.706ZM125.48 196.984C121.265 204.817 116.658 212.455 111.67 219.867L114.989 222.1C120.05 214.579 124.725 206.828 129.002 198.88L125.48 196.984ZM95.6716 241.276C90.0151 248.112 83.999 254.698 77.6341 261.003L80.449 263.844C86.9081 257.446 93.0133 250.763 98.7535 243.826L95.6716 241.276ZM57.7427 278.85C54.2943 281.65 50.7649 284.375 47.1557 287.023L49.5215 290.248C53.1836 287.562 56.7649 284.796 60.2641 281.955L57.7427 278.85ZM47.1557 287.023L42.4135 290.501L44.7793 293.726L49.5215 290.248L47.1557 287.023ZM32.9291 297.458L28.1869 300.937L30.5528 304.162L35.295 300.684L32.9291 297.458Z" fill="#57ADFF"/>
</svg>
