<svg width="51" height="116" viewBox="0 0 51 116" fill="none" xmlns="http://www.w3.org/2000/svg">
<path d="M25.0932 102.336L25.8531 102.986L25.0932 102.336ZM17.0614 112.815C16.5108 112.858 16.0296 112.446 15.9867 111.896L15.287 102.923C15.244 102.372 15.6556 101.891 16.2062 101.848C16.7568 101.805 17.238 102.217 17.2809 102.767L17.9029 110.743L25.8787 110.121C26.4293 110.078 26.9105 110.49 26.9534 111.04C26.9963 111.591 26.5848 112.072 26.0342 112.115L17.0614 112.815ZM13.5825 4.55664C16.1556 6.37489 18.5601 8.33857 20.7934 10.4283L19.4269 11.8887C17.2602 9.86128 14.9266 7.9554 12.4283 6.18998L13.5825 4.55664ZM32.442 24.8586C35.6567 30.2301 38.0728 35.9864 39.6673 41.9401L37.7354 42.4575C36.1881 36.6802 33.8439 31.0957 30.7258 25.8857L32.442 24.8586ZM41.9614 60.3431C41.8774 66.5061 40.9485 72.6794 39.151 78.6757L37.2352 78.1014C38.9787 72.2852 39.8801 66.2962 39.9616 60.3158L41.9614 60.3431ZM31.4017 95.5242C29.7498 98.0983 27.901 100.592 25.8531 102.986L24.3332 101.687C26.3217 99.3618 28.1159 96.9413 29.7185 94.444L31.4017 95.5242ZM25.8531 102.986L23.8257 105.357L22.3059 104.057L24.3332 101.687L25.8531 102.986ZM19.771 110.097L17.7436 112.468L16.2237 111.168L18.2511 108.797L19.771 110.097ZM25.0932 102.336L26.6131 103.636L25.0932 102.336ZM17.1391 113.812C16.0379 113.898 15.0756 113.074 14.9897 111.973L13.5903 94.0277C13.5044 92.9265 14.3275 91.9642 15.4288 91.8783C16.53 91.7924 17.4923 92.6155 17.5782 93.7168L18.8221 109.668L34.7737 108.424C35.8749 108.339 36.8373 109.162 36.9231 110.263C37.009 111.364 36.1859 112.326 35.0847 112.412L17.1391 113.812ZM14.1596 3.73996C16.7701 5.58463 19.21 7.57722 21.4767 9.69807L18.7437 12.6189C16.6103 10.6226 14.3122 8.74566 11.8512 7.00665L14.1596 3.73996ZM33.3 24.3451C36.563 29.7973 39.0151 35.6395 40.6332 41.6814L36.7694 42.7162C35.2458 37.0271 32.9376 31.5286 29.8678 26.3992L33.3 24.3451ZM42.9613 60.3567C42.8761 66.611 41.9334 72.8764 40.1089 78.9628L36.2773 77.8142C37.9939 72.0882 38.8815 66.1913 38.9617 60.3022L42.9613 60.3567ZM32.2433 96.0643C30.5668 98.6767 28.6907 101.207 26.6131 103.636L23.5733 101.037C25.532 98.7466 27.2989 96.3628 28.877 93.9039L32.2433 96.0643ZM26.6131 103.636L24.5857 106.007L21.5459 103.407L23.5733 101.037L26.6131 103.636ZM20.5309 110.747L18.5035 113.118L15.4638 110.518L17.4912 108.147L20.5309 110.747Z" fill="#57ADFF"/>
</svg>
