<?xml version="1.0" encoding="utf-8"?><svg viewBox="0 0 78 52" xmlns="http://www.w3.org/2000/svg" xmlns:xlink="http://www.w3.org/1999/xlink"><style>:root>svg{display:none}:root>svg:target{display:block}</style><svg fill="none" viewBox="0 0 15 9" id="arrow" xmlns="http://www.w3.org/2000/svg"><path d="M8.085 8.667l6.675-6.675a.815.815 0 00.24-.58.815.815 0 00-.24-.58L14.27.34a.822.822 0 00-1.16 0L7.502 5.945 1.892.333a.815.815 0 00-.58-.24.816.816 0 00-.581.24L.24.825a.815.815 0 00-.24.58c0 .22.085.426.24.58l6.68 6.682c.156.155.363.24.583.24.22 0 .427-.085.582-.24z" fill="#000"/></svg><svg fill="none" viewBox="0 0 18 12" id="arrow-white" xmlns="http://www.w3.org/2000/svg"><path d="M8.298 1L.288 9.01A.977.977 0 000 9.706c0 .264.102.51.288.696l.59.59a.986.986 0 001.392 0l6.726-6.726L15.73 11a.978.978 0 00.696.287.979.979 0 00.697-.288l.59-.59A.978.978 0 0018 9.714a.977.977 0 00-.288-.696L9.695 1a.979.979 0 00-.698-.287.979.979 0 00-.7.287z" fill="#fff"/></svg><svg fill="none" viewBox="0 0 78 52" id="logo" xmlns="http://www.w3.org/2000/svg"><path d="M63.056 15.882l-8.844.013-26.41 24.897H10.034V23.46L34.235.85l-16.242.05L0 17.663V51.15h34.028L63.042 23.57l.014-7.687z" fill="#fff"/><path d="M43.972.849L14.958 28.432l-.013 7.686 8.843-.013 26.41-24.897h17.767V28.54l-24.2 22.611 16.242-.05L78 34.338V.848H43.972z" fill="#fff"/></svg></svg>