<svg width="20" height="20" viewBox="0 0 20 20" fill="none" xmlns="http://www.w3.org/2000/svg">
<path d="M3.03013 1.99329L3.17524 2.47015L3.65254 2.32652L3.67644 2.31909L3.6792 2.3182H18.5361C19.0684 2.3182 19.5 2.7498 19.5 3.28206V3.4108C19.5 3.55075 19.4683 3.69341 19.4086 3.82092C19.4085 3.82104 19.4085 3.82116 19.4084 3.82128L16.2368 10.5609C16.0192 11.0231 15.5544 11.3181 15.0435 11.3181H6.23515H5.94779L5.80313 11.5664L5.78365 11.5999C5.77814 11.6092 5.77407 11.6159 5.77071 11.6212C5.76696 11.6272 5.76483 11.6302 5.76412 11.6311L4.32428 13.3109L3.61679 14.1363H4.70391H17.6818V14.9545H4.70395C4.12347 14.9545 3.6223 14.5947 3.44069 14.0162L2.96365 14.166L3.44069 14.0162C3.30807 13.5938 3.43119 13.0955 3.75833 12.7139L3.75834 12.7139L4.81903 11.4764L4.99765 11.268L4.91775 11.0055L2.07772 1.67264L1.96986 1.3182H1.59938H0.5V0.5H2.27271C2.45271 0.5 2.61151 0.617679 2.6639 0.78984L3.03013 1.99329Z" stroke="url(#paint0_linear)"/>
<path d="M6.77262 18.1821C6.77262 18.9101 6.18245 19.5003 5.45443 19.5003C4.72641 19.5003 4.13623 18.9101 4.13623 18.1821C4.13623 17.4541 4.72641 16.8639 5.45443 16.8639C6.18245 16.8639 6.77262 17.4541 6.77262 18.1821Z" stroke="url(#paint1_linear)"/>
<path d="M17.6818 18.1821C17.6818 18.9101 17.0916 19.5003 16.3636 19.5003C15.6356 19.5003 15.0454 18.9101 15.0454 18.1821C15.0454 17.4541 15.6356 16.8639 16.3636 16.8639C17.0916 16.8639 17.6818 17.4541 17.6818 18.1821Z" stroke="url(#paint2_linear)"/>
<defs>
<linearGradient id="paint0_linear" x1="10" y1="0" x2="10" y2="15.4545" gradientUnits="userSpaceOnUse">
<stop stop-color="#FF9F2F"/>
<stop offset="1" stop-color="#FF6326"/>
<stop offset="1" stop-color="#FF6026"/>
</linearGradient>
<linearGradient id="paint1_linear" x1="5.45443" y1="16.3639" x2="5.45443" y2="20.0003" gradientUnits="userSpaceOnUse">
<stop stop-color="#FF9F2F"/>
<stop offset="1" stop-color="#FF6326"/>
<stop offset="1" stop-color="#FF6026"/>
</linearGradient>
<linearGradient id="paint2_linear" x1="16.3636" y1="16.3639" x2="16.3636" y2="20.0003" gradientUnits="userSpaceOnUse">
<stop stop-color="#FF9F2F"/>
<stop offset="1" stop-color="#FF6326"/>
<stop offset="1" stop-color="#FF6026"/>
</linearGradient>
</defs>
</svg>
