<svg width="20" height="20" viewBox="0 0 20 20" fill="none" xmlns="http://www.w3.org/2000/svg">
<path d="M18.5361 1.8182H3.63635C3.59148 1.8182 3.55053 1.83507 3.50847 1.84773L3.14225 0.644276C3.02578 0.261563 2.67277 0 2.27271 0H0.45456C0.203523 0 0 0.203523 0 0.45456V1.36364C0 1.61467 0.203523 1.8182 0.45456 1.8182H1.59938L4.43941 11.151L3.37871 12.3885C2.95948 12.8776 2.7707 13.5514 2.96365 14.166C3.21043 14.952 3.90414 15.4545 4.70395 15.4545H17.7273C17.9783 15.4545 18.1818 15.251 18.1818 15V14.0909C18.1818 13.8399 17.9783 13.6363 17.7273 13.6363H4.70391L6.14481 11.9553C6.18103 11.913 6.20766 11.8653 6.23515 11.8181H15.0435C15.7481 11.8181 16.3892 11.4113 16.6892 10.7738L19.8611 4.0336C19.9521 3.83962 20 3.62434 20 3.4108V3.28206C20 2.47364 19.3446 1.8182 18.5361 1.8182Z" fill="#FBF6FF"/>
<path d="M5.45443 20.0004C6.45859 20.0004 7.27262 19.1864 7.27262 18.1822C7.27262 17.178 6.45859 16.364 5.45443 16.364C4.45026 16.364 3.63623 17.178 3.63623 18.1822C3.63623 19.1864 4.45026 20.0004 5.45443 20.0004Z" fill="#FBF6FF"/>
<path d="M16.3636 20.0004C17.3678 20.0004 18.1818 19.1864 18.1818 18.1822C18.1818 17.178 17.3678 16.364 16.3636 16.364C15.3594 16.364 14.5454 17.178 14.5454 18.1822C14.5454 19.1864 15.3594 20.0004 16.3636 20.0004Z" fill="#FBF6FF"/>
</svg>
