<?xml version="1.0" encoding="utf-8"?><svg viewBox="0 0 44 45" xmlns="http://www.w3.org/2000/svg" xmlns:xlink="http://www.w3.org/1999/xlink"><style>:root>svg{display:none}:root>svg:target{display:block}</style><svg fill="none" viewBox="0 0 44 45" id="Insta" xmlns="http://www.w3.org/2000/svg"><path fill-rule="evenodd" clip-rule="evenodd" d="M0 22.676C0 10.589 9.85.79 22 .79s22 9.799 22 21.886-9.85 21.886-22 21.886S0 34.763 0 22.676z" fill="url(#apaint0_linear)"/><path fill-rule="evenodd" clip-rule="evenodd" d="M22.001 11.003c-3.187 0-3.587.014-4.838.07-1.25.058-2.102.255-2.848.543a5.75 5.75 0 00-2.078 1.346 5.725 5.725 0 00-1.355 2.068c-.29.742-.489 1.59-.545 2.833-.056 1.245-.07 1.643-.07 4.813s.014 3.567.07 4.812c.058 1.243.256 2.09.546 2.833.3.768.7 1.42 1.353 2.068a5.747 5.747 0 002.078 1.347c.746.289 1.6.486 2.848.542 1.252.057 1.651.07 4.838.07 3.186 0 3.585-.013 4.837-.07 1.249-.056 2.102-.253 2.849-.542a5.743 5.743 0 002.077-1.347 5.728 5.728 0 001.354-2.068c.289-.742.487-1.59.545-2.833.057-1.245.071-1.642.071-4.812 0-3.17-.014-3.568-.07-4.813-.06-1.243-.257-2.09-.546-2.833a5.726 5.726 0 00-1.354-2.068 5.737 5.737 0 00-2.078-1.346c-.748-.288-1.6-.485-2.85-.542-1.252-.057-1.65-.07-4.838-.07h.004zm-1.052 2.104H22c3.133 0 3.504.011 4.741.067 1.145.052 1.765.243 2.179.402a3.63 3.63 0 011.348.873c.411.409.665.798.878 1.343.161.41.352 1.028.405 2.167.056 1.23.068 1.6.068 4.715 0 3.115-.012 3.485-.069 4.715-.052 1.138-.243 1.756-.404 2.167a3.609 3.609 0 01-.878 1.34c-.41.41-.8.662-1.348.874-.413.16-1.034.35-2.178.402-1.237.056-1.609.068-4.742.068s-3.504-.012-4.741-.068c-1.144-.052-1.765-.243-2.179-.402a3.637 3.637 0 01-1.35-.873 3.616 3.616 0 01-.877-1.342c-.16-.411-.352-1.029-.404-2.167-.057-1.23-.068-1.6-.068-4.717 0-3.117.011-3.485.068-4.715.052-1.139.243-1.756.404-2.168.212-.544.467-.934.878-1.342.41-.409.802-.662 1.35-.874.413-.16 1.034-.35 2.178-.402 1.082-.049 1.502-.063 3.689-.066v.003zm7.315 1.938c-.777 0-1.408.627-1.408 1.4 0 .774.631 1.401 1.408 1.401.778 0 1.408-.627 1.408-1.4 0-.774-.63-1.401-1.408-1.401zm-6.263 1.637c-3.328 0-6.026 2.684-6.026 5.994 0 3.31 2.698 5.994 6.026 5.994s6.025-2.683 6.025-5.994c0-3.31-2.698-5.994-6.025-5.994zm0 2.104c2.16 0 3.911 1.741 3.911 3.89 0 2.15-1.75 3.891-3.91 3.891s-3.912-1.742-3.912-3.89c0-2.15 1.751-3.892 3.911-3.892z" fill="#fff"/><defs><linearGradient id="apaint0_linear" x1="22" y1=".79" x2="22" y2="44.562" gradientUnits="userSpaceOnUse"><stop stop-color="#FF9F2F"/><stop offset="1" stop-color="#FF6326"/><stop offset="1" stop-color="#FF6026"/></linearGradient></defs></svg><svg fill="none" viewBox="0 0 44 44" id="Telega" xmlns="http://www.w3.org/2000/svg"><path fill-rule="evenodd" clip-rule="evenodd" d="M0 22.076C0 9.99 9.85.19 22 .19s22 9.799 22 21.886c0 12.088-9.85 21.886-22 21.886S0 34.164 0 22.076z" fill="url(#bpaint0_linear)"/><path d="M17.104 23.197l-5.65-2.472c-.637-.279-.594-1.196.066-1.414l21.485-7.082a.758.758 0 01.974.893l-4.293 18.254a.757.757 0 01-1.217.413l-5.045-4.128-6.32-4.464z" fill="#FCF8E8"/><path d="M28.81 16.17l-11.706 7.027 1.432 6.644a.836.836 0 001.319.493l3.569-2.673-2.937-2.403 8.693-8.611c.254-.253-.063-.66-.37-.476z" fill="#BEC3D2"/><path d="M19.008 30.426a.831.831 0 00.847-.092l3.57-2.672-1.47-1.202-1.467-1.202-1.48 5.168z" fill="#AFB4C8"/><defs><linearGradient id="bpaint0_linear" x1="22" y1=".19" x2="22" y2="43.962" gradientUnits="userSpaceOnUse"><stop stop-color="#FF9F2F"/><stop offset="1" stop-color="#FF6326"/><stop offset="1" stop-color="#FF6026"/></linearGradient></defs></svg><svg fill="none" viewBox="0 0 44 45" id="VK" xmlns="http://www.w3.org/2000/svg"><path fill-rule="evenodd" clip-rule="evenodd" d="M0 22.676C0 10.589 9.85.79 22 .79s22 9.799 22 21.886-9.85 21.886-22 21.886S0 34.763 0 22.676z" fill="url(#cpaint0_linear)"/><path fill-rule="evenodd" clip-rule="evenodd" d="M23.15 29.859s.424-.046.641-.274c.199-.208.192-.602.192-.602s-.027-1.837.847-2.108c.86-.267 1.966 1.777 3.14 2.562.885.594 1.558.464 1.558.464l3.134-.042s1.64-.099.862-1.358c-.064-.103-.453-.93-2.33-2.632-1.966-1.781-1.702-1.493.665-4.574 1.441-1.877 2.018-3.022 1.837-3.512-.17-.468-1.231-.344-1.231-.344l-3.528.021s-.262-.034-.456.079c-.19.11-.312.37-.312.37s-.558 1.451-1.303 2.686c-1.571 2.605-2.199 2.743-2.456 2.582-.598-.378-.449-1.516-.449-2.324 0-2.525.393-3.578-.763-3.85-.384-.09-.666-.15-1.647-.16-1.26-.012-2.324.004-2.928.292-.402.192-.712.62-.522.645.233.03.76.139 1.04.511.362.48.35 1.559.35 1.559s.207 2.972-.486 3.341c-.475.253-1.127-.263-2.528-2.627-.718-1.21-1.26-2.549-1.26-2.549s-.104-.25-.291-.384c-.226-.163-.542-.213-.542-.213l-3.352.021s-.504.014-.689.228c-.164.19-.013.582-.013.582s2.625 5.998 5.598 9.02c2.726 2.771 5.82 2.59 5.82 2.59h1.403z" fill="#fff"/><defs><linearGradient id="cpaint0_linear" x1="22" y1=".79" x2="22" y2="44.562" gradientUnits="userSpaceOnUse"><stop stop-color="#FF9F2F"/><stop offset="1" stop-color="#FF6326"/><stop offset="1" stop-color="#FF6026"/></linearGradient></defs></svg><svg fill="none" viewBox="0 0 7 4" id="arrow-down" xmlns="http://www.w3.org/2000/svg"><path d="M6.92 3.69a.273.273 0 01-.387 0L3.693.856a.274.274 0 00-.387 0L.466 3.69a.273.273 0 01-.386-.387L2.92.47a.818.818 0 011.16 0l2.84 2.833a.273.273 0 010 .387z" fill="#444B58"/></svg><svg fill="none" viewBox="0 0 20 20" id="basket" xmlns="http://www.w3.org/2000/svg"><path d="M18.536 1.818h-14.9c-.045 0-.085.017-.128.03L3.142.644A.909.909 0 002.272 0H.456A.455.455 0 000 .455v.909c0 .25.204.454.455.454h1.144l2.84 9.333-1.06 1.238c-.42.489-.608 1.162-.415 1.777.246.786.94 1.288 1.74 1.288h13.023a.455.455 0 00.455-.454v-.91a.455.455 0 00-.455-.454H4.704l1.44-1.68c.037-.043.064-.09.091-.138h8.809c.704 0 1.345-.407 1.645-1.044l3.172-6.74c.091-.194.139-.41.139-.623v-.129c0-.808-.655-1.464-1.464-1.464zM5.454 20a1.818 1.818 0 100-3.636 1.818 1.818 0 000 3.636zM16.364 20a1.818 1.818 0 100-3.636 1.818 1.818 0 000 3.636z" fill="#FBF6FF"/></svg><svg fill="none" viewBox="0 0 20 20" id="basket-orange" xmlns="http://www.w3.org/2000/svg"><path d="M3.03 1.993l.145.477.478-.143.023-.008h14.86c.532 0 .964.43.964.963v.129c0 .14-.032.283-.092.41l-3.171 6.74a1.319 1.319 0 01-1.193.757H5.947l-.145.248-.02.034a.849.849 0 01-.019.031l-1.44 1.68-.707.825h14.065v.819H4.704c-.58 0-1.082-.36-1.263-.939l-.477.15.477-.15c-.133-.422-.01-.92.317-1.302h0l1.061-1.238.179-.208-.08-.263-2.84-9.332-.108-.355H.5V.5h1.773c.18 0 .339.118.39.29l.367 1.203zM6.772 18.182a1.318 1.318 0 11-2.636 0 1.318 1.318 0 012.636 0zM17.682 18.182a1.318 1.318 0 11-2.637 0 1.318 1.318 0 012.637 0z" stroke="#FF6026"/></svg><svg fill="none" viewBox="0 0 6 11" id="question" xmlns="http://www.w3.org/2000/svg"><path d="M3.78 8.524H2.184a4.09 4.09 0 01.14-1.31c.121-.38.28-.69.476-.932.205-.25.41-.478.616-.683a6.86 6.86 0 00.588-.668c.196-.25.327-.51.392-.78.075-.548-.037-.975-.336-1.281-.299-.316-.69-.474-1.176-.474-.364 0-.695.12-.994.362a1.447 1.447 0 00-.532.961H0c.037-.9.313-1.583.826-2.047C1.349 1.207 2.03.975 2.87.975c.775-.018 1.451.172 2.03.571.588.4.938.924 1.05 1.574.056.353.065.66.028.92-.037.334-.145.65-.322.947-.168.287-.36.543-.574.766-.205.222-.41.46-.616.71a2.934 2.934 0 00-.504.891c-.13.344-.191.734-.182 1.17zm-.154 2.2a.903.903 0 01-.644.237c-.261 0-.485-.079-.672-.236a.782.782 0 01-.266-.613c0-.25.089-.455.266-.613.187-.158.41-.237.672-.237.261 0 .476.08.644.237a.782.782 0 01.266.613c0 .25-.089.455-.266.613z" fill="#383C44"/></svg><svg fill="none" viewBox="0 0 20 20" id="trash-can" xmlns="http://www.w3.org/2000/svg"><path d="M18.572 2.857h-5v-.714C13.572.959 12.611 0 11.428 0H8.572C7.388 0 6.429.96 6.429 2.143v.714h-5a.714.714 0 100 1.429h.776L3.572 19.35c.033.369.343.65.714.649h11.428c.37.002.681-.28.715-.65l1.366-15.064h.776a.714.714 0 100-1.429zM7.857 2.143c0-.395.32-.714.715-.714h2.857c.394 0 .714.32.714.714v.714H7.857v-.714zm7.205 16.428H4.938L3.643 4.286H16.36L15.062 18.57z" fill="#383C44" fill-opacity=".6"/><path d="M10 5.714a.714.714 0 00-.714.715v10a.714.714 0 101.428 0v-10A.714.714 0 0010 5.714zM7.858 16.38v-.002l-.715-10a.716.716 0 00-1.429.101l.715 10a.714.714 0 00.714.664h.052a.714.714 0 00.663-.762zM13.622 5.714a.716.716 0 00-.765.664l-.714 10a.714.714 0 00.663.765h.051c.376 0 .688-.29.714-.664l.715-10a.716.716 0 00-.664-.765z" fill="#383C44" fill-opacity=".6"/></svg></svg>