<svg width="31" height="19" viewBox="0 0 31 19" fill="none" xmlns="http://www.w3.org/2000/svg">
<path fill-rule="evenodd" clip-rule="evenodd" d="M15.092 18.028H16.932C16.932 18.028 17.484 17.936 17.76 17.66C18.036 17.384 18.036 16.832 18.036 16.832C18.036 16.832 18.036 14.44 19.14 14.072C20.244 13.704 21.716 16.464 23.188 17.476C24.292 18.304 25.12 18.12 25.12 18.12L29.168 18.028C29.168 18.028 31.284 17.936 30.272 16.188C30.18 16.096 29.72 14.992 27.236 12.692C24.66 10.3 25.028 10.76 28.064 6.61999C29.904 4.13599 30.64 2.66399 30.456 1.92799C30.272 1.28399 28.892 1.46799 28.892 1.46799H24.292C24.292 1.46799 23.924 1.37599 23.74 1.55999C23.464 1.74399 23.372 2.01999 23.372 2.01999C23.372 2.01999 22.636 3.95199 21.716 5.60799C19.692 9.01199 18.864 9.19599 18.588 9.01199C17.852 8.55199 18.036 6.98799 18.036 5.97599C18.036 2.66399 18.588 1.28399 17.024 0.915994C16.564 0.823994 16.196 0.731995 14.908 0.731995C13.252 0.731995 11.872 0.731994 11.136 1.09999C10.584 1.37599 10.216 1.92799 10.492 1.92799C10.768 1.92799 11.504 2.11199 11.872 2.57199C12.24 3.39999 12.24 4.77999 12.24 4.77999C12.24 4.77999 12.516 8.73599 11.596 9.19599C10.952 9.56399 10.124 8.82799 8.28402 5.69999C7.36402 4.13599 6.62802 2.29599 6.62802 2.29599C6.62802 2.29599 6.53602 1.92799 6.26002 1.74399C5.98402 1.55999 5.52402 1.46799 5.52402 1.46799H1.20002C1.20002 1.46799 0.55602 1.46799 0.28002 1.74399C0.09602 2.01999 0.28002 2.47999 0.28002 2.47999C0.28002 2.47999 3.68402 10.392 7.54802 14.44C11.136 18.304 15.092 18.028 15.092 18.028Z" fill="white"/>
</svg>
