<svg id="Capa_1" enable-background="new 0 0 512 512" height="512" viewBox="0 0 512 512" width="512" xmlns="http://www.w3.org/2000/svg" xmlns:xlink="http://www.w3.org/1999/xlink"><linearGradient id="SVGID_1_" gradientUnits="userSpaceOnUse" x1="256" x2="256" y1="451.001" y2="7.009"><stop offset="0" stop-color="#5558ff"/><stop offset="1" stop-color="#00c0ff"/></linearGradient><linearGradient id="SVGID_2_" gradientUnits="userSpaceOnUse" x1="256" x2="256" y1="512" y2="0"><stop offset="0" stop-color="#addcff"/><stop offset=".5028" stop-color="#eaf6ff"/><stop offset="1" stop-color="#eaf6ff"/></linearGradient><><><g><path d="m2.695 444.569c3.311 4.775 9.141 7.178 14.766 6.226l171.435-28.403 43.128-100.458 10.954-314.925-241 421.549c-2.872 5.025-2.593 11.265.717 16.011zm507.327-16.01-241-421.549 10.753 313.386 43.329 101.996 171.435 28.403c5.698.908 11.455-1.479 14.766-6.226s3.589-10.986.717-16.01z" fill="url(#SVGID_1_)"/></g><g><path d="m269.022 7.009c-5.332-9.346-20.713-9.346-26.045 0l-54.082 415.382 54.624 82.929c2.783 4.175 7.471 6.68 12.48 6.68s9.697-2.505 12.48-6.68l54.624-82.929z" fill="url(#SVGID_2_)"/></g></svg>