<svg width="358" height="26" viewBox="0 0 358 26" fill="none" xmlns="http://www.w3.org/2000/svg">
<path d="M0 24.8749H338.204L356.37 1M1.20416 25L19.3698 1.12515M45.2042 25L63.3698 1.12515M177.204 25L195.37 1.12515M89.2042 25L107.37 1.12515M221.204 25L239.37 1.12515M133.204 25L151.37 1.12515M265.204 25L283.37 1.12515M309.204 25L327.37 1.12515M16.2042 25L34.3698 1.12515M60.2042 25L78.3698 1.12515M192.204 25L210.37 1.12515M104.204 25L122.37 1.12515M236.204 25L254.37 1.12515M148.204 25L166.37 1.12515M280.204 25L298.37 1.12515M324.204 25L342.37 1.12515M30.2042 24.8749L48.3698 1M74.2042 24.8749L92.3698 1M206.204 24.8749L224.37 1M118.204 24.8749L136.37 1M250.204 24.8749L268.37 1M162.204 24.8749L180.37 1M294.204 24.8749L312.37 1" stroke="#F2F2F2" stroke-width="2" stroke-linejoin="round"/>
</svg>
