<svg width="103" height="69" viewBox="0 0 103 69" fill="none" xmlns="http://www.w3.org/2000/svg">
<path d="M102.378 31.9053C92.6802 13.0992 73.4822 0.375244 51.4999 0.375244C29.5176 0.375244 10.3142 13.1081 0.622194 31.9071C0.21313 32.7114 0 33.5999 0 34.5011C0 35.4023 0.21313 36.2909 0.622194 37.0952C10.3196 55.9012 29.5176 68.6252 51.4999 68.6252C73.4822 68.6252 92.6856 55.8924 102.378 37.0934C102.787 36.2891 103 35.4005 103 34.4994C103 33.5982 102.787 32.7096 102.378 31.9053ZM51.4999 60.094C46.407 60.094 41.4285 58.5929 37.194 55.7807C32.9594 52.9684 29.659 48.9712 27.71 44.2945C25.761 39.6179 25.2511 34.4719 26.2447 29.5072C27.2382 24.5424 29.6907 19.9821 33.2919 16.4027C36.8931 12.8234 41.4813 10.3858 46.4763 9.39827C51.4713 8.41073 56.6488 8.91757 61.354 10.8547C66.0592 12.7918 70.0808 16.0722 72.9102 20.2811C75.7397 24.49 77.2499 29.4383 77.2499 34.5002C77.2515 37.8617 76.5866 41.1906 75.2931 44.2965C73.9997 47.4024 72.103 50.2245 69.7116 52.6014C67.3201 54.9783 64.4808 56.8635 61.3559 58.1491C58.2311 59.4347 54.8819 60.0956 51.4999 60.094ZM51.4999 17.4377C49.9677 17.459 48.4453 17.6856 46.974 18.1114C48.1868 19.7495 48.7688 21.7654 48.6144 23.7934C48.46 25.8215 47.5796 27.7274 46.1326 29.1655C44.6857 30.6037 42.7682 31.4788 40.7277 31.6323C38.6873 31.7857 36.6591 31.2072 35.011 30.0018C34.0725 33.4384 34.2419 37.0811 35.4953 40.417C36.7488 43.753 39.0233 46.6142 41.9985 48.5981C44.9738 50.5819 48.5001 51.5884 52.081 51.476C55.6619 51.3636 59.1173 50.1378 61.9606 47.9713C64.804 45.8047 66.8922 42.8065 67.9313 39.3986C68.9705 35.9907 68.9082 32.3446 67.7533 28.9737C66.5985 25.6028 64.4091 22.6767 61.4935 20.6073C58.5778 18.5379 55.0826 17.4294 51.4999 17.4377Z" fill="white"/>
</svg>
