<svg width="103" height="103" viewBox="0 0 103 103" fill="none" xmlns="http://www.w3.org/2000/svg">
<path d="M42.4473 54.5178H60.5527V60.553H42.4473V54.5178Z" fill="white"/>
<path d="M83.5626 60.553H66.5879V63.5706C66.5879 65.2381 65.2378 66.5881 63.5703 66.5881H39.4297C37.7622 66.5881 36.4121 65.2381 36.4121 63.5706V60.553H19.4374C15.5358 60.553 12.0852 58.0658 10.8499 54.3646L0 21.8093V87.7112C0 92.7028 4.06116 96.7639 9.05273 96.7639H93.9473C98.9388 96.7639 103 92.7028 103 87.7112V21.8117L92.1493 54.3646C90.9148 58.0658 87.4642 60.553 83.5626 60.553Z" fill="white"/>
<path d="M63.5702 6.23657H39.4296C34.438 6.23657 30.3769 10.2977 30.3769 15.2893V18.3069H5.19189L16.573 52.455C16.9856 53.6896 18.1376 54.5178 19.4374 54.5178H36.412V51.5002C36.412 49.8327 37.7621 48.4827 39.4296 48.4827H63.5702C65.2378 48.4827 66.5878 49.8327 66.5878 51.5002V54.5178H83.5625C84.8622 54.5178 86.0143 53.6896 86.4268 52.455L97.8087 18.3069H72.623V15.2893C72.623 10.2977 68.5618 6.23657 63.5702 6.23657ZM36.412 18.3069V15.2893C36.412 13.6241 37.7644 12.2717 39.4296 12.2717H63.5702C65.2354 12.2717 66.5878 13.6241 66.5878 15.2893V18.3069H36.412Z" fill="white"/>
</svg>
