<svg width="103" height="103" viewBox="0 0 103 103" fill="none" xmlns="http://www.w3.org/2000/svg">
<g clip-path="url(#clip0)">
<path d="M27.0195 27.0254V33.4872C28.1511 32.8391 28.8269 31.693 29.0103 30.6026C29.1423 29.816 29.1964 27.9421 27.0195 27.0254Z" fill="white"/>
<path d="M21.9273 18.48C21.7666 19.3327 21.9699 20.1249 22.4457 20.4979C22.6133 20.6293 22.798 20.7584 22.9959 20.8854V16.6785C22.3821 17.1492 22.0438 17.862 21.9273 18.48Z" fill="white"/>
<path d="M25.1465 0.000244141C11.2807 0.000244141 0 11.281 0 25.1467C0 39.0125 11.2807 50.2932 25.1465 50.2932C39.0123 50.2932 50.293 39.0125 50.293 25.1467C50.293 11.281 39.0123 0.000244141 25.1465 0.000244141ZM32.9779 31.2696C32.5045 34.085 30.3621 36.9402 27.0194 37.7882V39.2288C27.0194 40.3396 26.1185 41.2405 25.0077 41.2405C23.8968 41.2405 22.996 40.3396 22.996 39.2288V37.9811C21.3717 37.8407 20.0253 37.4019 18.1165 36.1532C17.1867 35.5451 16.9262 34.2982 17.5343 33.3684C18.1423 32.4388 19.3893 32.1777 20.3192 32.7862C21.4055 33.4968 22.0869 33.805 22.996 33.9329V25.4372C21.7111 24.8484 20.7507 24.2817 19.9627 23.6635C18.2932 22.3541 17.5309 20.0824 17.9733 17.7346C18.4553 15.176 20.2363 13.1404 22.6208 12.4222C22.7471 12.3842 22.872 12.3494 22.996 12.3164V11.0647C22.996 9.95383 23.8968 9.05298 25.0077 9.05298C26.1185 9.05298 27.0194 9.95383 27.0194 11.0647V12.0961C28.9726 12.4343 30.353 13.3959 31.0217 14.1635C31.7516 15.0012 31.6639 16.272 30.8262 17.0017C29.9929 17.7273 28.7314 17.6452 27.9995 16.8196C27.9536 16.7732 27.634 16.4654 27.0194 16.2386V22.7389C27.3765 22.8715 27.7334 23 28.0836 23.1239C31.6198 24.3738 33.5867 27.6475 32.9779 31.2696Z" fill="white"/>
<path d="M100.488 44.7031L89.9952 42.9211C88.6768 40.8713 87.1205 38.9819 85.348 37.2794C86.3671 32.1819 89.1135 27.6477 93.1872 24.3887L93.8205 23.8822C94.8214 23.0817 95.2072 21.7363 94.7829 20.5268C94.3587 19.3174 93.217 18.5081 91.9355 18.5081H83.8887C76.7684 18.5081 70.2522 22.5337 66.9838 28.7401C65.9005 28.6248 64.8264 28.5667 63.7715 28.5667H56.1398C54.4311 44.1573 41.1845 56.3284 25.1465 56.3284C16.3852 56.3284 8.45807 52.695 2.78824 46.8576C0.96482 50.8742 0 55.265 0 59.7483C0 69.3832 4.48412 78.4701 12.0703 84.3665V99.9827C12.0703 101.649 13.4214 103 15.0879 103H27.1582C28.457 103 29.6101 102.169 30.0209 100.937L33.3567 90.9299H61.5966L64.9322 100.937C65.343 102.169 66.4962 103 67.7949 103H79.8652C81.5317 103 82.8828 101.649 82.8828 99.9827V84.3669C87.0324 81.1439 90.2779 76.9561 92.3663 72.1254L101.116 68.5801C102.255 68.1185 103 67.0124 103 65.7834V47.678C103 46.2064 101.939 44.9495 100.488 44.7031ZM76.8477 51.7014C75.1811 51.7014 73.8301 50.3503 73.8301 48.6838C73.8301 47.0173 75.1811 45.6663 76.8477 45.6663C78.5142 45.6663 79.8652 47.0173 79.8652 48.6838C79.8652 50.3503 78.5142 51.7014 76.8477 51.7014Z" fill="white"/>
</g>
<defs>
<clipPath id="clip0">
<path d="M0 0.000244141H83C94.0457 0.000244141 103 8.95455 103 20.0002V83.0002C103 94.0459 94.0457 103 83 103H0V0.000244141Z" fill="white"/>
</clipPath>
</defs>
</svg>
