<svg width="117" height="117" viewBox="0 0 117 117" fill="none" xmlns="http://www.w3.org/2000/svg">
<path d="M31.0781 13.9395C25.4077 13.9395 20.7949 18.5523 20.7949 24.2227C20.7949 29.893 25.4077 34.5059 31.0781 34.5059C36.7485 34.5059 41.3613 29.893 41.3613 24.2227C41.3613 18.5523 36.7485 13.9395 31.0781 13.9395Z" fill="white"/>
<path d="M89.3496 20.7949C85.5704 20.7949 82.4941 23.8712 82.4941 27.6504C82.4941 31.4296 85.5704 34.5059 89.3496 34.5059C93.1288 34.5059 96.2051 31.4296 96.2051 27.6504C96.2051 23.8712 93.1288 20.7949 89.3496 20.7949Z" fill="white"/>
<path d="M61.9277 0C54.3659 0 48.2168 6.14913 48.2168 13.7109C48.2168 21.2727 54.3659 27.4219 61.9277 27.4219C69.4895 27.4219 75.6387 21.2727 75.6387 13.7109C75.6387 6.14913 69.4895 0 61.9277 0Z" fill="white"/>
<path d="M22.8032 61.9277L43.3696 82.4941H73.6301L94.1965 61.9277H22.8032Z" fill="white"/>
<path d="M109.655 43.4769C109.126 42.1947 107.874 41.3613 106.488 41.3613H10.5119C9.12616 41.3613 7.87412 42.1947 7.34534 43.4769C6.81312 44.7589 7.10768 46.2319 8.08847 47.2127L15.948 55.0723H101.052L108.912 47.2125C109.893 46.2317 110.187 44.7589 109.655 43.4769Z" fill="white"/>
<path d="M48.2168 89.3496V106.717C48.2168 108.016 48.9499 109.201 50.1114 109.783L63.8224 116.638C64.3077 116.88 64.8299 117 65.3555 117C65.9814 117 66.6075 116.829 67.1564 116.488C68.1674 115.862 68.7832 114.761 68.7832 113.572V89.3496H48.2168Z" fill="white"/>
</svg>
