<svg width="9" height="14" viewBox="0 0 9 14" fill="none" xmlns="http://www.w3.org/2000/svg">
<path d="M0.861693 0.828074C0.753539 0.936007 0.667733 1.06421 0.609188 1.20535C0.550643 1.34648 0.520508 1.49778 0.520508 1.65057C0.520508 1.80337 0.550643 1.95467 0.609188 2.0958C0.667733 2.23694 0.753539 2.36514 0.861693 2.47307L5.38836 6.99974L0.861693 11.5264C0.643552 11.7445 0.521002 12.0404 0.521002 12.3489C0.521002 12.6574 0.643552 12.9533 0.861693 13.1714C1.07983 13.3895 1.3757 13.5121 1.68419 13.5121C1.99269 13.5121 2.28855 13.3895 2.50669 13.1714L7.86169 7.81641C7.96985 7.70847 8.05565 7.58027 8.1142 7.43914C8.17274 7.298 8.20288 7.1467 8.20288 6.99391C8.20288 6.84111 8.17274 6.68981 8.1142 6.54868C8.05565 6.40754 7.96985 6.27934 7.86169 6.17141L2.50669 0.816407C2.06336 0.373074 1.31669 0.373074 0.861693 0.828074Z" fill="#57ADFF"/>
</svg>
