<svg width="9" height="14" viewBox="0 0 9 14" fill="none" xmlns="http://www.w3.org/2000/svg">
<path d="M8.13831 0.828074C8.24646 0.936007 8.33227 1.06421 8.39081 1.20535C8.44936 1.34648 8.47949 1.49778 8.47949 1.65057C8.47949 1.80337 8.44936 1.95467 8.39081 2.0958C8.33227 2.23694 8.24646 2.36514 8.13831 2.47307L3.61164 6.99974L8.13831 11.5264C8.35645 11.7445 8.479 12.0404 8.479 12.3489C8.479 12.6574 8.35645 12.9533 8.13831 13.1714C7.92017 13.3895 7.6243 13.5121 7.31581 13.5121C7.00731 13.5121 6.71145 13.3895 6.49331 13.1714L1.13831 7.81641C1.03015 7.70847 0.944348 7.58027 0.885803 7.43914C0.827258 7.298 0.797124 7.1467 0.797124 6.99391C0.797124 6.84111 0.827258 6.68981 0.885803 6.54868C0.944348 6.40754 1.03015 6.27934 1.13831 6.17141L6.49331 0.816407C6.93664 0.373074 7.68331 0.373074 8.13831 0.828074Z" fill="#57ADFF"/>
</svg>
