<svg width="380" height="210" viewBox="0 0 380 210" fill="none" xmlns="http://www.w3.org/2000/svg">
<path d="M349 74.2778C317.5 63.7778 331.5 16.3333 313 0H372.5C375 0 380 3.88889 380 6.61111V60.8882C380 60.8882 380.5 84.7778 349 74.2778Z" fill="#AD0606"/>
<path d="M38.8894 0C38.8894 0 26.5089 37.0183 21.5 38.8889C10.5 42.9969 1 29.5556 0 26.0556L2.0802e-05 6.61111C2.0802e-05 3.88889 5.50002 0 7.00001 0H38.8894Z" fill="#AD0606"/>
<path d="M177.377 19.0802C169.672 19.0802 172.511 0 172.511 0H189.502C189.502 0 182.649 19.0802 177.377 19.0802Z" fill="#AD0606"/>
<path d="M55.276 157.111C30.593 157.111 25 210 25 210H66C66 210 64.6697 157.111 55.276 157.111Z" fill="#AD0606"/>
<ellipse cx="327" cy="174.5" rx="14" ry="12.5" fill="#AD0606"/>
</svg>
