<svg width="24" height="17" viewBox="0 0 24 17" fill="none" xmlns="http://www.w3.org/2000/svg">
<path d="M22.2857 0.000488281H1.71429C1.25963 0.000488281 0.823594 0.179595 0.502103 0.498407C0.180612 0.817219 0 1.24962 0 1.70049V15.3005C0 15.7514 0.180612 16.1838 0.502103 16.5026C0.823594 16.8214 1.25963 17.0005 1.71429 17.0005H22.2857C22.7404 17.0005 23.1764 16.8214 23.4979 16.5026C23.8194 16.1838 24 15.7514 24 15.3005V1.70049C24 1.24962 23.8194 0.817219 23.4979 0.498407C23.1764 0.179595 22.7404 0.000488281 22.2857 0.000488281V0.000488281ZM20.4 1.70049L12 7.46349L3.6 1.70049H20.4ZM1.71429 15.3005V2.47399L11.5114 9.19749C11.6549 9.2962 11.8254 9.34909 12 9.34909C12.1746 9.34909 12.3451 9.2962 12.4886 9.19749L22.2857 2.47399V15.3005H1.71429Z" fill="#F2F2F2"/>
</svg>
