<svg id="insta" viewBox="0 0 32 32" fill="none" xmlns="http://www.w3.org/2000/svg">
<path d="M22.9176 1H9.0824C4.61819 1 1 4.61883 1 9.0824V22.9176C1 27.3818 4.61883 31 9.08304 31H22.917C27.3812 31 31 27.3812 31 22.917V9.0824C31 4.61819 27.3812 1 22.917 1H22.9176Z" stroke="#F2F2F2" stroke-width="2" stroke-miterlimit="10"/>
<path d="M15.9999 23.2418C19.9993 23.2418 23.2414 19.9997 23.2414 16.0003C23.2414 12.0009 19.9993 8.75879 15.9999 8.75879C12.0006 8.75879 8.75842 12.0009 8.75842 16.0003C8.75842 19.9997 12.0006 23.2418 15.9999 23.2418Z" stroke="#F2F2F2" stroke-width="2" stroke-miterlimit="10"/>
<path d="M24.7931 8.7589C25.6501 8.7589 26.3447 8.06424 26.3447 7.20733C26.3447 6.35042 25.6501 5.65576 24.7931 5.65576C23.9362 5.65576 23.2416 6.35042 23.2416 7.20733C23.2416 8.06424 23.9362 8.7589 24.7931 8.7589Z" fill="#F2F2F2"/>
</svg>
