<svg width="40" height="55" viewBox="0 0 40 55" fill="none" xmlns="http://www.w3.org/2000/svg">
<path d="M19.7697 1.64987e-09C14.5423 0.00433596 9.52903 2.06281 5.82485 5.72583C2.12068 9.38884 0.0266007 14.3587 0 19.55C0 27.3333 4.39699 33.85 7.61921 38.6L8.2066 39.4667C11.4125 44.081 14.8517 48.5312 18.511 52.8L19.7865 54.2833L21.0619 52.8C24.7207 48.5308 28.1599 44.0807 31.3663 39.4667L31.9537 38.5833C35.1591 33.8333 39.5561 27.3333 39.5561 19.55C39.5295 14.3558 37.4331 9.38344 33.7253 5.71995C30.0175 2.05646 25 -6.72601e-05 19.7697 1.64987e-09V1.64987e-09ZM19.7697 28.3333C17.5923 28.3333 15.4637 27.6921 13.6533 26.4907C11.8428 25.2894 10.4317 23.5818 9.59845 21.584C8.76518 19.5862 8.54716 17.3879 8.97196 15.267C9.39675 13.1462 10.4453 11.198 11.985 9.66897C13.5246 8.13991 15.4863 7.09861 17.6219 6.67675C19.7575 6.25488 21.9711 6.4714 23.9827 7.29892C25.9944 8.12643 27.7138 9.52779 28.9235 11.3258C30.1333 13.1237 30.7789 15.2376 30.7789 17.4C30.7789 20.2997 29.619 23.0806 27.5544 25.131C25.4898 27.1814 22.6895 28.3333 19.7697 28.3333V28.3333Z" fill="#AD0606"/>
<path d="M19.7696 23.6164C23.2268 23.6164 26.0294 20.8331 26.0294 17.3998C26.0294 13.9664 23.2268 11.1831 19.7696 11.1831C16.3124 11.1831 13.5098 13.9664 13.5098 17.3998C13.5098 20.8331 16.3124 23.6164 19.7696 23.6164Z" fill="#AD0606"/>
</svg>
