<svg width="25" height="25" viewBox="0 0 25 25" fill="none" xmlns="http://www.w3.org/2000/svg">
<path d="M12.5 2.50049C18.0125 2.50049 22.5 6.98799 22.5 12.5005C22.5 18.013 18.0125 22.5005 12.5 22.5005C6.9875 22.5005 2.5 18.013 2.5 12.5005C2.5 6.98799 6.9875 2.50049 12.5 2.50049ZM12.5 0.000488281C5.59625 0.000488281 0 5.59674 0 12.5005C0 19.4042 5.59625 25.0005 12.5 25.0005C19.4037 25.0005 25 19.4042 25 12.5005C25 5.59674 19.4037 0.000488281 12.5 0.000488281ZM17.25 16.7505L13.75 12.0842V6.25049H11.25V12.9167L15.25 18.2492L17.25 16.7492V16.7505Z" fill="#F2F2F2"/>
</svg>
