<svg width="16" height="25" viewBox="0 0 16 25" fill="none" xmlns="http://www.w3.org/2000/svg">
<path d="M12.5 1.56299C12.9144 1.56299 13.3118 1.72761 13.6049 2.02063C13.8979 2.31366 14.0625 2.71109 14.0625 3.12549V21.8755C14.0625 22.2899 13.8979 22.6873 13.6049 22.9803C13.3118 23.2734 12.9144 23.438 12.5 23.438H3.125C2.7106 23.438 2.31317 23.2734 2.02015 22.9803C1.72712 22.6873 1.5625 22.2899 1.5625 21.8755V3.12549C1.5625 2.71109 1.72712 2.31366 2.02015 2.02063C2.31317 1.72761 2.7106 1.56299 3.125 1.56299H12.5ZM3.125 0.000488281C2.2962 0.000488281 1.50134 0.329728 0.915291 0.91578C0.32924 1.50183 0 2.29669 0 3.12549V21.8755C0 22.7043 0.32924 23.4991 0.915291 24.0852C1.50134 24.6712 2.2962 25.0005 3.125 25.0005H12.5C13.3288 25.0005 14.1237 24.6712 14.7097 24.0852C15.2958 23.4991 15.625 22.7043 15.625 21.8755V3.12549C15.625 2.29669 15.2958 1.50183 14.7097 0.91578C14.1237 0.329728 13.3288 0.000488281 12.5 0.000488281L3.125 0.000488281Z" fill="#F2F2F2"/>
<path d="M7.8125 21.8755C8.2269 21.8755 8.62433 21.7109 8.91735 21.4178C9.21038 21.1248 9.375 20.7274 9.375 20.313C9.375 19.8986 9.21038 19.5012 8.91735 19.2081C8.62433 18.9151 8.2269 18.7505 7.8125 18.7505C7.3981 18.7505 7.00067 18.9151 6.70765 19.2081C6.41462 19.5012 6.25 19.8986 6.25 20.313C6.25 20.7274 6.41462 21.1248 6.70765 21.4178C7.00067 21.7109 7.3981 21.8755 7.8125 21.8755Z" fill="#F2F2F2"/>
</svg>
