<svg  id="vk" viewBox="0 0 30 30" fill="none" xmlns="http://www.w3.org/2000/svg">
<path d="M29.5 15C29.5 23.0081 23.0081 29.5 15 29.5C6.99187 29.5 0.5 23.0081 0.5 15C0.5 6.99187 6.99187 0.5 15 0.5C23.0081 0.5 29.5 6.99187 29.5 15Z" stroke="#F2F2F2"/>
<path class="vk-logo" fill-rule="evenodd" clip-rule="evenodd" d="M14.7906 21.7029H15.9562C15.9562 21.7029 16.3083 21.6638 16.488 21.4678C16.6535 21.2879 16.6482 20.9501 16.6482 20.9501C16.6482 20.9501 16.6254 19.3684 17.3513 19.1355C18.0668 18.9061 18.9857 20.6642 19.9596 21.3401C20.6961 21.8517 21.2557 21.7396 21.2557 21.7396L23.8598 21.7029C23.8598 21.7029 25.2221 21.618 24.5762 20.5349C24.5232 20.4462 24.2 19.7336 22.64 18.2692C21.0071 16.7365 21.2258 16.9844 23.1927 14.3333C24.3906 12.7187 24.8695 11.733 24.7199 11.3108C24.5772 10.9087 23.6962 11.015 23.6962 11.015L20.7641 11.0334C20.7641 11.0334 20.5468 11.0034 20.3856 11.1009C20.2281 11.1965 20.1267 11.4192 20.1267 11.4192C20.1267 11.4192 19.6626 12.6686 19.0437 13.7312C17.738 15.9733 17.216 16.0916 17.0026 15.9524C16.5063 15.6279 16.6302 14.6489 16.6302 13.9534C16.6302 11.7806 16.956 10.8747 15.9956 10.6402C15.6769 10.5623 15.4423 10.5109 14.6272 10.5026C13.581 10.4916 12.6955 10.5058 12.1942 10.7542C11.8606 10.9194 11.6033 11.2875 11.76 11.3086C11.9538 11.3349 12.3927 11.4283 12.6254 11.7488C12.9259 12.1621 12.9153 13.0905 12.9153 13.0905C12.9153 13.0905 13.0879 15.6483 12.5121 15.9661C12.1169 16.184 11.5747 15.739 10.4107 13.7049C9.81426 12.663 9.36397 11.5113 9.36397 11.5113C9.36397 11.5113 9.27714 11.2961 9.12227 11.1809C8.93432 11.0415 8.67171 10.997 8.67171 10.997L5.88547 11.0155C5.88547 11.0155 5.4672 11.0273 5.31366 11.2112C5.17706 11.3748 5.3028 11.7132 5.3028 11.7132C5.3028 11.7132 7.48415 16.8741 9.95404 19.475C12.2188 21.8595 14.7906 21.7029 14.7906 21.7029Z" fill="#F2F2F2"/>
</svg>
