<svg width="103" height="103" viewBox="0 0 103 103" fill="none" xmlns="http://www.w3.org/2000/svg">
<path d="M30.2955 51.6233H9.6416C12.2757 58.8293 15.5966 66.668 19.4032 72.9829C25.2835 82.7373 32.7606 90.418 36.6945 94.1287C39.5793 96.85 42.3855 99.1698 44.8082 100.837C46.3327 101.886 47.5436 102.564 48.5173 103V69.8451C39.1148 68.4816 31.6589 61.0257 30.2955 51.6233Z" fill="white"/>
<path d="M54.7305 69.8451V102.932C55.6774 102.494 56.8428 101.832 58.2887 100.837C60.7114 99.169 63.5168 96.8492 66.4024 94.1279C70.3362 90.418 77.8134 82.7366 83.6937 72.9829C87.5011 66.668 90.8212 58.8293 93.4545 51.6233H72.9522C71.5888 61.0257 64.1329 68.4816 54.7305 69.8451Z" fill="white"/>
<path d="M48.4432 27.1983V0H30.0305C28.5539 0 27.2817 1.03886 26.9862 2.48479C26.9603 2.61445 24.1132 15.5712 4.52726 27.3107C3.35088 28.0155 2.77644 29.4088 3.11277 30.7384C3.24401 31.2547 4.81723 37.4054 7.47726 45.4098H30.2953C31.6548 36.0318 39.0754 28.59 48.4432 27.1983Z" fill="white"/>
<path d="M72.9524 45.4098H95.6196C98.2796 37.4062 99.8528 31.2547 99.9833 30.7384C100.32 29.4088 99.746 28.0155 98.5696 27.3107C88.4222 21.2291 82.8522 14.7869 79.9675 10.4531C76.9428 5.91178 76.1554 2.67731 76.1083 2.473C75.8254 1.01372 74.5547 0 73.0663 0H54.6567V27.1778C64.0945 28.513 71.585 35.9823 72.9524 45.4098Z" fill="white"/>
<path d="M51.6243 33.176C43.1657 33.176 36.2842 40.0583 36.2842 48.5162C36.2842 56.9748 43.1657 63.8563 51.6243 63.8563C60.0822 63.8563 66.9637 56.9748 66.9637 48.5162C66.9637 40.0583 60.0822 33.176 51.6243 33.176ZM60.1176 47.1897L50.8471 56.4601C50.2633 57.044 49.4727 57.3701 48.6508 57.3701C48.6012 57.3701 48.551 57.3693 48.4999 57.3662C47.6252 57.3237 46.8088 56.9143 46.2516 56.2377L42.2871 51.419C41.1972 50.0941 41.3873 48.1366 42.7123 47.0467C44.0372 45.9559 45.9947 46.1461 47.0846 47.471L48.8747 49.6462L55.7248 42.7969C56.9381 41.5836 58.905 41.5836 60.1176 42.7969C61.3317 44.0094 61.3317 45.9764 60.1176 47.1897Z" fill="white"/>
</svg>
