<svg width="103" height="103" viewBox="0 0 103 103" fill="none" xmlns="http://www.w3.org/2000/svg">
<path d="M21.3242 78.8594C26.3239 78.8594 30.377 74.8063 30.377 69.8066C30.377 64.807 26.3239 60.7539 21.3242 60.7539C16.3245 60.7539 12.2715 64.807 12.2715 69.8066C12.2715 74.8063 16.3245 78.8594 21.3242 78.8594Z" fill="white"/>
<path d="M51.5 84.8945C56.4997 84.8945 60.5527 80.8415 60.5527 75.8418C60.5527 70.8421 56.4997 66.7891 51.5 66.7891C46.5003 66.7891 42.4473 70.8421 42.4473 75.8418C42.4473 80.8415 46.5003 84.8945 51.5 84.8945Z" fill="white"/>
<path d="M81.6758 78.8594C86.6755 78.8594 90.7285 74.8063 90.7285 69.8066C90.7285 64.807 86.6755 60.7539 81.6758 60.7539C76.6761 60.7539 72.623 64.807 72.623 69.8066C72.623 74.8063 76.6761 78.8594 81.6758 78.8594Z" fill="white"/>
<path d="M51.5 84.8945C43.1809 84.8945 36.4121 91.6634 36.4121 99.9824C36.4121 101.65 37.7618 103 39.4297 103H63.5703C65.2382 103 66.5879 101.65 66.5879 99.9824C66.5879 91.6634 59.8191 84.8945 51.5 84.8945Z" fill="white"/>
<path d="M51.5 24.3418C53.1666 24.3418 54.5176 22.9908 54.5176 21.3242C54.5176 19.6577 53.1666 18.3066 51.5 18.3066C49.8334 18.3066 48.4824 19.6577 48.4824 21.3242C48.4824 22.9908 49.8334 24.3418 51.5 24.3418Z" fill="white"/>
<path d="M99.9824 6.03516C101.65 6.03516 103 4.68549 103 3.01758C103 1.34966 101.65 0 99.9824 0H3.01758C1.34966 0 0 1.34966 0 3.01758C0 4.68549 1.34966 6.03516 3.01758 6.03516H6.03516V48.6836H3.01758C1.34966 48.6836 0 50.0333 0 51.7012C0 53.3691 1.34966 54.7188 3.01758 54.7188H36.4121V45.666C36.4121 37.347 43.1809 30.377 51.5 30.377C46.5081 30.377 42.4473 26.3161 42.4473 21.3242C42.4473 16.3323 46.5081 12.2715 51.5 12.2715C56.4919 12.2715 60.5527 16.3323 60.5527 21.3242C60.5527 26.3161 56.4919 30.377 51.5 30.377C59.8191 30.377 66.5879 37.347 66.5879 45.666V54.7188H99.9824C101.65 54.7188 103 53.3691 103 51.7012C103 50.0333 101.65 48.6836 99.9824 48.6836H96.9648V6.03516H99.9824Z" fill="white"/>
<path d="M60.5527 45.666C60.5527 40.6741 56.4919 36.4121 51.5 36.4121C46.5081 36.4121 42.4473 40.6741 42.4473 45.666V54.7188H60.5527V45.666Z" fill="white"/>
<path d="M81.676 78.8594C75.7783 78.8594 70.7126 82.2944 68.2329 87.2392C70.3635 90.0288 71.7922 93.3359 72.3183 96.9648H93.7463C95.4142 96.9648 96.7639 95.6152 96.7639 93.9473C96.7639 85.6282 89.9951 78.8594 81.676 78.8594Z" fill="white"/>
<path d="M21.3242 78.8594C13.0052 78.8594 6.23633 85.6282 6.23633 93.9473C6.23633 95.6152 7.58599 96.9648 9.25391 96.9648H30.6819C31.208 93.3357 32.6367 90.0286 34.7673 87.2392C32.2877 82.2944 27.222 78.8594 21.3242 78.8594Z" fill="white"/>
</svg>
