<svg width="56" height="32" viewBox="0 0 56 32" fill="none" xmlns="http://www.w3.org/2000/svg">
<path fill-rule="evenodd" clip-rule="evenodd" d="M27.666 31.5947H30.986C30.986 31.5947 31.982 31.4287 32.48 30.9307C32.978 30.4327 32.978 29.4367 32.978 29.4367C32.978 29.4367 32.978 25.1207 34.97 24.4567C36.962 23.7927 39.618 28.7727 42.274 30.5987C44.266 32.0927 45.76 31.7607 45.76 31.7607L53.064 31.5947C53.064 31.5947 56.882 31.4287 55.056 28.2747C54.89 28.1087 54.06 26.1167 49.578 21.9667C44.93 17.6507 45.594 18.4807 51.072 11.0107C54.392 6.52872 55.72 3.87272 55.388 2.54472C55.056 1.38272 52.566 1.71472 52.566 1.71472H44.266C44.266 1.71472 43.602 1.54872 43.27 1.88072C42.772 2.21272 42.606 2.71072 42.606 2.71072C42.606 2.71072 41.278 6.19672 39.618 9.18472C35.966 15.3267 34.472 15.6587 33.974 15.3267C32.646 14.4967 32.978 11.6747 32.978 9.84872C32.978 3.87272 33.974 1.38272 31.152 0.718717C30.322 0.552717 29.658 0.386719 27.334 0.386719C24.346 0.386719 21.856 0.386718 20.528 1.05072C19.532 1.54872 18.868 2.54472 19.366 2.54472C19.864 2.54472 21.192 2.87672 21.856 3.70672C22.52 5.20072 22.52 7.69072 22.52 7.69072C22.52 7.69072 23.018 14.8287 21.358 15.6587C20.196 16.3227 18.702 14.9947 15.382 9.35072C13.722 6.52872 12.394 3.20872 12.394 3.20872C12.394 3.20872 12.228 2.54472 11.73 2.21272C11.232 1.88072 10.402 1.71472 10.402 1.71472H2.60004C2.60004 1.71472 1.43804 1.71472 0.940036 2.21272C0.608036 2.71072 0.940036 3.54072 0.940036 3.54072C0.940036 3.54072 7.08204 17.8167 14.054 25.1207C20.528 32.0927 27.666 31.5947 27.666 31.5947Z" fill="#57ADFF"/>
</svg>
