<svg width="34" height="34" viewBox="0 0 34 34" fill="none" xmlns="http://www.w3.org/2000/svg">
<path d="M16.9999 11.5323C13.9894 11.5323 11.5326 13.9891 11.5326 16.9997C11.5326 20.0102 13.9894 22.467 16.9999 22.467C20.0105 22.467 22.4673 20.0102 22.4673 16.9997C22.4673 13.9891 20.0105 11.5323 16.9999 11.5323ZM33.398 16.9997C33.398 14.7356 33.4185 12.492 33.2914 10.2321C33.1642 7.60708 32.5654 5.27739 30.6458 3.35786C28.7222 1.43423 26.3966 0.839501 23.7716 0.712353C21.5076 0.585204 19.264 0.605712 17.004 0.605712C14.74 0.605712 12.4964 0.585204 10.2365 0.712353C7.61147 0.839501 5.28179 1.43833 3.36225 3.35786C1.43862 5.28149 0.843896 7.60708 0.716747 10.2321C0.589599 12.4961 0.610107 14.7397 0.610107 16.9997C0.610107 19.2596 0.589599 21.5073 0.716747 23.7672C0.843896 26.3922 1.44272 28.7219 3.36225 30.6415C5.28589 32.5651 7.61147 33.1598 10.2365 33.287C12.5005 33.4141 14.7441 33.3936 17.004 33.3936C19.2681 33.3936 21.5117 33.4141 23.7716 33.287C26.3966 33.1598 28.7263 32.561 30.6458 30.6415C32.5695 28.7178 33.1642 26.3922 33.2914 23.7672C33.4226 21.5073 33.398 19.2637 33.398 16.9997ZM16.9999 25.412C12.3447 25.412 8.58764 21.6549 8.58764 16.9997C8.58764 12.3444 12.3447 8.58735 16.9999 8.58735C21.6552 8.58735 25.4123 12.3444 25.4123 16.9997C25.4123 21.6549 21.6552 25.412 16.9999 25.412ZM25.7568 10.2075C24.6699 10.2075 23.7921 9.32973 23.7921 8.24282C23.7921 7.15591 24.6699 6.27817 25.7568 6.27817C26.8437 6.27817 27.7214 7.15591 27.7214 8.24282C27.7218 8.50091 27.6712 8.75653 27.5725 8.99504C27.4739 9.23355 27.3292 9.45026 27.1467 9.63276C26.9642 9.81526 26.7475 9.95996 26.509 10.0586C26.2705 10.1572 26.0149 10.2078 25.7568 10.2075Z" fill="#57ADFF"/>
</svg>
