<svg width="46" height="34" viewBox="0 0 46 34" fill="none" xmlns="http://www.w3.org/2000/svg">
<path d="M44.9264 5.89179C44.6658 4.88762 44.1548 3.97188 43.4445 3.23621C42.7343 2.50054 41.8497 1.97075 40.8793 1.69986C37.3075 0.706055 22.9893 0.706055 22.9893 0.706055C22.9893 0.706055 8.67121 0.706054 5.09934 1.69457C4.12855 1.96458 3.24352 2.49408 2.53314 3.22988C1.82276 3.96569 1.31203 4.8819 1.05224 5.88651C0.0966795 9.58683 0.0966797 17.3046 0.0966797 17.3046C0.0966797 17.3046 0.0966795 25.0225 1.05224 28.7175C1.57857 30.758 3.132 32.365 5.09934 32.9094C8.67121 33.9032 22.9893 33.9032 22.9893 33.9032C22.9893 33.9032 37.3075 33.9032 40.8793 32.9094C42.8518 32.365 44.4001 30.758 44.9264 28.7175C45.882 25.0225 45.882 17.3046 45.882 17.3046C45.882 17.3046 45.882 9.58683 44.9264 5.89179ZM18.4415 24.3881V10.2212L30.2966 17.2518L18.4415 24.3881Z" fill="#57ADFF"/>
</svg>
