<svg width="20" height="20" viewBox="0 0 20 20" fill="none" xmlns="http://www.w3.org/2000/svg">
<path d="M10.0001 6.8756C8.2798 6.8756 6.87589 8.2795 6.87589 9.99982C6.87589 11.7201 8.2798 13.124 10.0001 13.124C11.7204 13.124 13.1243 11.7201 13.1243 9.99982C13.1243 8.2795 11.7204 6.8756 10.0001 6.8756ZM19.3704 9.99982C19.3704 8.70607 19.3821 7.42404 19.3095 6.13263C19.2368 4.63263 18.8946 3.30138 17.7978 2.2045C16.6985 1.10528 15.3696 0.76544 13.8696 0.692784C12.5759 0.620128 11.2939 0.631846 10.0025 0.631846C8.7087 0.631846 7.42667 0.620128 6.13527 0.692784C4.63527 0.76544 3.30402 1.10763 2.20714 2.2045C1.10792 3.30372 0.76808 4.63263 0.695424 6.13263C0.622767 7.42638 0.634486 8.70841 0.634486 9.99982C0.634486 11.2912 0.622767 12.5756 0.695424 13.867C0.76808 15.367 1.11027 16.6983 2.20714 17.7951C3.30636 18.8944 4.63527 19.2342 6.13527 19.3069C7.42902 19.3795 8.71105 19.3678 10.0025 19.3678C11.2962 19.3678 12.5782 19.3795 13.8696 19.3069C15.3696 19.2342 16.7009 18.892 17.7978 17.7951C18.897 16.6959 19.2368 15.367 19.3095 13.867C19.3845 12.5756 19.3704 11.2936 19.3704 9.99982ZM10.0001 14.8068C7.33995 14.8068 5.19308 12.66 5.19308 9.99982C5.19308 7.33966 7.33995 5.19278 10.0001 5.19278C12.6603 5.19278 14.8071 7.33966 14.8071 9.99982C14.8071 12.66 12.6603 14.8068 10.0001 14.8068ZM15.004 6.11857C14.3829 6.11857 13.8814 5.617 13.8814 4.99591C13.8814 4.37482 14.3829 3.87325 15.004 3.87325C15.6251 3.87325 16.1267 4.37482 16.1267 4.99591C16.1269 5.14339 16.0979 5.28946 16.0416 5.42575C15.9852 5.56204 15.9025 5.68588 15.7983 5.79016C15.694 5.89445 15.5701 5.97713 15.4339 6.03349C15.2976 6.08984 15.1515 6.11875 15.004 6.11857Z" fill="white"/>
</svg>
