<svg width="27" height="20" viewBox="0 0 27 20" fill="none" xmlns="http://www.w3.org/2000/svg">
<path d="M25.6579 3.6748C25.5135 3.11828 25.2302 2.61076 24.8366 2.20303C24.443 1.79531 23.9527 1.5017 23.4149 1.35156C21.4354 0.800781 13.5 0.800781 13.5 0.800781C13.5 0.800781 5.56465 0.800781 3.58506 1.34863C3.04703 1.49828 2.55653 1.79173 2.16283 2.19953C1.76912 2.60733 1.48607 3.11511 1.34209 3.67188C0.8125 5.72266 0.8125 10 0.8125 10C0.8125 10 0.8125 14.2773 1.34209 16.3252C1.63379 17.4561 2.49473 18.3467 3.58506 18.6484C5.56465 19.1992 13.5 19.1992 13.5 19.1992C13.5 19.1992 21.4354 19.1992 23.4149 18.6484C24.5081 18.3467 25.3662 17.4561 25.6579 16.3252C26.1875 14.2773 26.1875 10 26.1875 10C26.1875 10 26.1875 5.72266 25.6579 3.6748ZM10.9795 13.9258V6.07422L17.5498 9.9707L10.9795 13.9258Z" fill="white"/>
</svg>
