<svg width="526" height="96" viewBox="0 0 526 96" fill="none" xmlns="http://www.w3.org/2000/svg">
<path d="M205.133 39.8371L204.6 40.6829L205.133 39.8371ZM220.324 49.4214L220.858 48.5757L220.324 49.4214ZM458.238 79.9136L457.935 78.9607L458.238 79.9136ZM524.888 59.4595C525.142 58.969 524.95 58.3657 524.46 58.1118L516.466 53.9759C515.976 53.7221 515.372 53.914 515.118 54.4045C514.865 54.895 515.057 55.4984 515.547 55.7522L522.652 59.4286L518.976 66.5338C518.722 67.0243 518.914 67.6277 519.404 67.8815C519.895 68.1353 520.498 67.9434 520.752 67.4529L524.888 59.4595ZM1.79626 13.9551C6.0083 12.6486 10.2426 11.4599 14.4945 10.3884L14.0058 8.44904C9.71908 9.5293 5.45018 10.7277 1.20374 12.0449L1.79626 13.9551ZM40.3748 5.33409C49.1108 4.11314 57.8816 3.36992 66.6489 3.09937L66.5872 1.10032C57.7481 1.37309 48.9055 2.12239 40.0979 3.35334L40.3748 5.33409ZM93.0109 3.70912C101.781 4.38651 110.508 5.53671 119.154 7.15457L119.522 5.18869C110.805 3.55759 102.006 2.39799 93.1649 1.71506L93.0109 3.70912ZM144.774 13.3956C153.172 15.9284 161.45 18.9186 169.572 22.3612L170.352 20.5198C162.164 17.049 153.818 14.0343 145.351 11.4808L144.774 13.3956ZM193.259 33.9481C197.088 36.0846 200.87 38.3297 204.6 40.6829L205.667 38.9914C201.907 36.619 198.094 34.3555 194.233 32.2015L193.259 33.9481ZM204.6 40.6829L208.397 43.0789L209.464 41.3875L205.667 38.9914L204.6 40.6829ZM215.993 47.8711L219.79 50.2672L220.858 48.5757L217.06 46.1796L215.993 47.8711ZM219.79 50.2672C223.302 52.4828 226.853 54.6163 230.441 56.6675L231.434 54.9312C227.871 52.8944 224.345 50.7758 220.858 48.5757L219.79 50.2672ZM252.521 68.0455C260.064 71.5256 267.733 74.6645 275.507 77.4592L276.184 75.5772C268.465 72.802 260.849 69.6851 253.359 66.2295L252.521 68.0455ZM299.226 84.8376C307.243 86.9533 315.341 88.7168 323.497 90.1251L323.837 88.1543C315.739 86.7559 307.697 85.0047 299.737 82.9038L299.226 84.8376ZM348.135 93.2828C356.383 93.9769 364.664 94.3126 372.955 94.287L372.949 92.287C364.716 92.3125 356.493 91.9791 348.303 91.2899L348.135 93.2828ZM397.768 93.1288C405.995 92.3848 414.209 91.2815 422.386 89.8162L422.033 87.8476C413.914 89.3026 405.758 90.3981 397.588 91.137L397.768 93.1288ZM446.621 84.3741C450.61 83.294 454.585 82.125 458.542 80.8666L457.935 78.9607C454.006 80.2103 450.06 81.3711 446.098 82.4436L446.621 84.3741ZM458.542 80.8666L474.982 75.6382L474.376 73.7323L457.935 78.9607L458.542 80.8666ZM507.863 65.1814L524.303 59.953L523.697 58.047L507.257 63.2754L507.863 65.1814ZM205.133 39.8371L204.066 41.5286L205.133 39.8371ZM220.324 49.4214L221.391 47.7299L220.324 49.4214ZM458.238 79.9136L457.632 78.0077L458.238 79.9136ZM525.776 59.9191C526.284 58.9381 525.9 57.7313 524.919 57.2237L508.932 48.9518C507.951 48.4442 506.745 48.8279 506.237 49.809C505.729 50.79 506.113 51.9968 507.094 52.5044L521.305 59.8572L513.952 74.0676C513.444 75.0486 513.828 76.2554 514.809 76.763C515.79 77.2706 516.997 76.8868 517.504 75.9058L525.776 59.9191ZM2.09252 14.9102C6.28736 13.609 10.5043 12.4252 14.7389 11.3581L13.7615 7.47936C9.45733 8.56399 5.17112 9.76727 0.90748 11.0898L2.09252 14.9102ZM40.5132 6.32446C49.2134 5.10851 57.9483 4.36834 66.6797 4.0989L66.5563 0.100801C57.6814 0.374668 48.8029 1.12702 39.9595 2.36296L40.5132 6.32446ZM92.9338 4.70615C101.668 5.38077 110.36 6.52626 118.97 8.13751L119.706 4.20575C110.954 2.56804 102.119 1.40373 93.2419 0.718031L92.9338 4.70615ZM144.485 14.353C152.849 16.8754 161.093 19.8534 169.182 23.2819L170.743 19.5991C162.521 16.1142 154.141 13.0872 145.64 10.5234L144.485 14.353ZM192.772 34.8213C196.585 36.9491 200.351 39.1851 204.066 41.5286L206.2 38.1457C202.425 35.7637 198.597 33.491 194.721 31.3283L192.772 34.8213ZM204.066 41.5286L207.864 43.9247L209.998 40.5417L206.2 38.1457L204.066 41.5286ZM215.459 48.7168L219.257 51.1129L221.391 47.7299L217.593 45.3339L215.459 48.7168ZM219.257 51.1129C222.781 53.3362 226.344 55.4773 229.945 57.5356L231.93 54.063C228.38 52.0335 224.866 49.9223 221.391 47.7299L219.257 51.1129ZM252.102 68.9536C259.671 72.4458 267.368 75.5957 275.169 78.4003L276.522 74.6361C268.83 71.8708 261.241 68.7649 253.778 65.3215L252.102 68.9536ZM298.971 85.8045C307.016 87.9276 315.142 89.6973 323.327 91.1105L324.007 87.1688C315.937 85.7754 307.924 84.0304 299.992 81.9369L298.971 85.8045ZM348.051 94.2793C356.328 94.9758 364.638 95.3127 372.958 95.287L372.946 91.287C364.742 91.3124 356.548 90.9802 348.387 90.2934L348.051 94.2793ZM397.858 94.1248C406.114 93.3781 414.357 92.271 422.562 90.8005L421.856 86.8632C413.766 88.3132 405.639 89.4048 397.498 90.141L397.858 94.1248ZM446.883 85.3394C450.886 84.2555 454.874 83.0824 458.845 81.8196L457.632 78.0077C453.717 79.2529 449.784 80.4097 445.837 81.4784L446.883 85.3394ZM458.845 81.8196L475.285 76.5912L474.073 72.7793L457.632 78.0077L458.845 81.8196ZM508.166 66.1343L524.606 60.9059L523.394 57.0941L506.953 62.3225L508.166 66.1343Z" fill="#57ADFF"/>
</svg>
