<svg width="340" height="44" viewBox="0 0 340 44" fill="none" xmlns="http://www.w3.org/2000/svg">
<path d="M43.8885 24.6057L43.6065 25.5652L43.8885 24.6057ZM255.752 30.8649L255.527 29.8905L255.752 30.8649ZM338.348 12.53C338.641 12.0617 338.498 11.4447 338.03 11.152L330.398 6.38201C329.93 6.0893 329.313 6.23167 329.02 6.70001C328.727 7.16835 328.87 7.7853 329.338 8.07801L336.122 12.318L331.882 19.102C331.589 19.5703 331.732 20.1873 332.2 20.48C332.668 20.7727 333.285 20.6303 333.578 20.162L338.348 12.53ZM0.718009 12.9594L11.4401 16.1109L12.0041 14.192L1.28199 11.0406L0.718009 12.9594ZM32.8844 22.4137L43.6065 25.5652L44.1705 23.6463L33.4484 20.4949L32.8844 22.4137ZM43.6065 25.5652C47.9044 26.8284 52.218 28.0214 56.5456 29.1441L57.0478 27.2082C52.7408 26.0908 48.4478 24.9035 44.1705 23.6463L43.6065 25.5652ZM82.7344 35.0496C91.5338 36.7396 100.376 38.1451 109.248 39.2658L109.498 37.2815C100.669 36.1662 91.869 34.7674 83.1116 33.0855L82.7344 35.0496ZM135.976 41.7753C144.911 42.3261 153.86 42.5905 162.811 42.5681L162.806 40.5681C153.898 40.5904 144.991 40.3273 136.1 39.7791L135.976 41.7753ZM189.641 41.6409C198.564 41.0459 207.473 40.1648 216.357 38.9973L216.097 37.0143C207.255 38.1763 198.388 39.0532 189.508 39.6453L189.641 41.6409ZM242.849 34.6481C247.235 33.7829 251.612 32.8466 255.977 31.8393L255.527 29.8905C251.183 30.893 246.827 31.8248 242.462 32.6859L242.849 34.6481ZM255.977 31.8393L266.195 29.4812L265.746 27.5324L255.527 29.8905L255.977 31.8393ZM286.632 24.765L307.069 20.0487L306.62 18.1L286.183 22.8162L286.632 24.765ZM327.506 15.3325L337.725 12.9744L337.275 11.0256L327.057 13.3837L327.506 15.3325ZM43.8885 24.6057L43.3245 26.5246V26.5246L43.8885 24.6057ZM255.752 30.8649L255.302 28.9161L255.752 30.8649ZM339.196 13.06C339.781 12.1233 339.497 10.8894 338.56 10.304L323.296 0.764022C322.359 0.178601 321.125 0.463347 320.54 1.40002C319.955 2.33669 320.239 3.57059 321.176 4.15602L334.744 12.636L326.264 26.204C325.679 27.1406 325.963 28.3745 326.9 28.96C327.837 29.5454 329.071 29.2606 329.656 28.324L339.196 13.06ZM0.436018 13.9188L11.1581 17.0703L12.2861 13.2326L1.56398 10.0812L0.436018 13.9188ZM32.6024 23.3731L43.3245 26.5246L44.4525 22.6869L33.7304 19.5355L32.6024 23.3731ZM43.3245 26.5246C47.6326 27.7908 51.9565 28.9866 56.2945 30.112L57.299 26.2402C53.0023 25.1255 48.7196 23.9411 44.4525 22.6869L43.3245 26.5246ZM82.5458 36.0317C91.3662 37.7256 100.23 39.1345 109.122 40.2579L109.624 36.2894C100.816 35.1768 92.0366 33.7813 83.3002 32.1034L82.5458 36.0317ZM135.915 42.7734C144.87 43.3255 153.841 43.5906 162.814 43.5681L162.804 39.5681C153.917 39.5904 145.031 39.3279 136.161 38.781L135.915 42.7734ZM189.708 42.6386C198.651 42.0422 207.583 41.1591 216.488 39.9888L215.966 36.0229C207.146 37.182 198.3 38.0568 189.442 38.6475L189.708 42.6386ZM243.043 35.6292C247.439 34.7619 251.826 33.8234 256.202 32.8137L255.302 28.9161C250.969 29.9162 246.623 30.8458 242.268 31.7048L243.043 35.6292ZM256.202 32.8137L266.42 30.4556L265.521 26.558L255.302 28.9161L256.202 32.8137ZM286.857 25.7394L307.294 21.0231L306.395 17.1256L285.958 21.8418L286.857 25.7394ZM327.731 16.3069L337.95 13.9488L337.05 10.0512L326.832 12.4093L327.731 16.3069Z" fill="#57ADFF"/>
</svg>
