<svg width="54" height="54" viewBox="0 0 54 54" fill="none" xmlns="http://www.w3.org/2000/svg">
<path d="M24 6C20.4399 6 16.9598 7.05568 13.9997 9.03355C11.0397 11.0114 8.73255 13.8226 7.37018 17.1117C6.0078 20.4008 5.65134 24.02 6.34587 27.5116C7.04041 31.0033 8.75474 34.2106 11.2721 36.7279C13.7894 39.2453 16.9967 40.9596 20.4884 41.6541C23.98 42.3487 27.5992 41.9922 30.8883 40.6298C34.1774 39.2675 36.9886 36.9603 38.9665 34.0003C40.9443 31.0402 42 27.5601 42 24C42 19.2261 40.1036 14.6477 36.7279 11.2721C33.3523 7.89642 28.7739 6 24 6ZM24 38.865C21.0276 38.8649 18.1222 37.9816 15.6526 36.3274C13.183 34.6731 11.2606 32.3224 10.1294 29.5736C8.99813 26.8249 8.70907 23.802 9.29887 20.8886C9.88868 17.9753 11.3308 15.3029 13.4421 13.2106C15.5534 11.1182 18.2387 9.70039 21.1573 9.13695C24.0758 8.57351 27.096 8.88988 29.8344 10.0459C32.5728 11.202 34.9061 13.1456 36.5379 15.63C38.1698 18.1144 39.0268 21.0277 39 24C38.9644 27.9548 37.3684 31.7355 34.5592 34.5194C31.75 37.3034 27.955 38.8652 24 38.865Z" fill="white"/>
<path d="M47.5651 44.5348L39.8101 36.7798C39.1711 37.5704 38.4741 38.3125 37.7251 38.9998L45.4501 46.7248C45.7371 46.9705 46.1062 47.0989 46.4837 47.0844C46.8612 47.0698 47.2193 46.9133 47.4864 46.6461C47.7536 46.379 47.9101 46.0209 47.9247 45.6434C47.9392 45.2659 47.8108 44.8967 47.5651 44.6098V44.5348Z" fill="white"/>
<path d="M31.5 22.5H25.5V16.5C25.5 16.1022 25.342 15.7206 25.0607 15.4393C24.7794 15.158 24.3978 15 24 15C23.6022 15 23.2206 15.158 22.9393 15.4393C22.658 15.7206 22.5 16.1022 22.5 16.5V22.5H16.5C16.1022 22.5 15.7206 22.658 15.4393 22.9393C15.158 23.2206 15 23.6022 15 24C15 24.3978 15.158 24.7794 15.4393 25.0607C15.7206 25.342 16.1022 25.5 16.5 25.5H22.5V31.5C22.5 31.8978 22.658 32.2794 22.9393 32.5607C23.2206 32.842 23.6022 33 24 33C24.3978 33 24.7794 32.842 25.0607 32.5607C25.342 32.2794 25.5 31.8978 25.5 31.5V25.5H31.5C31.8978 25.5 32.2794 25.342 32.5607 25.0607C32.842 24.7794 33 24.3978 33 24C33 23.6022 32.842 23.2206 32.5607 22.9393C32.2794 22.658 31.8978 22.5 31.5 22.5Z" fill="white"/>
</svg>
